<?xml version="1.0" encoding="utf-8"?>
<!-- Generator: Adobe Illustrator 24.0.1, SVG Export Plug-In . SVG Version: 6.00 Build 0)  -->
<svg version="1.1" id="Layer_1" xmlns="http://www.w3.org/2000/svg" xmlns:xlink="http://www.w3.org/1999/xlink" x="0px" y="0px"
	 viewBox="0 0 500 500" style="enable-background:new 0 0 500 500;" xml:space="preserve">
<style type="text/css">
	.st0{fill:#FFFFFF;}
</style>
<g>
	<path class="st0" d="M395.4,162.7c-4.3,5.3-8.1,10-12.2,15c-3.8-2.6-7-4.7-12.5-8.3c0,21.2-1.5,40.8,0.4,60.2
		c1.8,18.4-4.7,27.3-21.9,33.3c-20.3,7-39.5,17.3-59.9,26.5c-19.4-28.1-51.3-19.8-78-27c-5.5-1.5-11.3-1.9-18-3
		c0-29.5,0-58.8,0-90.1c-5.6,3.3-9.5,5.5-14.4,8.3c-3.8-4.7-7.5-9.4-11.8-14.8c38.3-30.6,76.1-60.8,114.1-91.1
		C319.6,102.1,357.1,132.1,395.4,162.7z M282.7,253.3c15.8-15.6,31.8-30.6,46.7-46.7c10.2-11,9.7-28.7,0.7-40.3
		c-9.1-11.8-25.3-16.3-39.1-9.5c-6.1,3-10.3,3.4-16.6,0.1c-13.8-7.1-29.9-2.6-39.2,9.1c-9.6,12.3-10,29.3,1.1,41.2
		C251,223.1,266.8,237.7,282.7,253.3z"/>
	<path class="st0" d="M75.3,413c0-27.5-0.3-50.4,0.3-73.3c0.1-3.8,3-8.2,5.9-11c12.9-12.7,26.1-25,39.5-37.2
		c15-13.7,32.5-18.4,52.6-15.1c27,4.4,54.1,8.2,81.1,12.4c12.4,1.9,18.4,9.3,15.9,19.6c-2.5,10.1-9.3,12.6-19.2,11
		c-26.4-4.3-53-8.2-80.7-12.4c-1,7-1.8,13-2.8,20.3c30,4.4,59.1,9.4,88.3,12.5c17.6,1.9,29.8-7.8,37-24.3c1.7-3.9,5.1-8.3,8.8-10
		c22.3-10.6,45-20.3,67.4-30.6c9.7-4.4,18.5-4.8,23.5,6.1c4.8,10.7-0.9,17.6-10.5,22.1c-46.8,21.6-93.6,43.2-140.6,64.5
		c-4.5,2-10.3,2.5-15.2,1.9c-20.1-2.6-40.2-5.6-60.2-9c-9.8-1.7-17.5,0-25.3,6.9c-14.9,13.1-30.6,25.3-46.4,37.3
		C90,408.2,83.5,409.5,75.3,413z"/>
	<path class="st0" d="M281.1,190.5c6.6-6.2,10.2-11.8,15.1-13.4c5.2-1.7,13.3-1.6,17.2,1.4c2.7,2.1,2.8,12.3,0.1,15.8
		c-8.9,11.2-19.6,21-31.3,33c-10.4-11-20.5-20.2-28.5-30.9c-3.2-4.3-4.3-13.8-1.7-18.1c4.7-7.6,12.9-5.9,19.2,0.2
		C274.6,181.8,277.3,185.9,281.1,190.5z"/>
</g>
</svg>
