<?xml version="1.0" encoding="utf-8"?>
<!-- Generator: Adobe Illustrator 24.0.1, SVG Export Plug-In . SVG Version: 6.00 Build 0)  -->
<svg version="1.1" id="Layer_1" xmlns="http://www.w3.org/2000/svg" xmlns:xlink="http://www.w3.org/1999/xlink" x="0px" y="0px"
	 viewBox="0 0 100 100" style="enable-background:new 0 0 100 100;" xml:space="preserve">
<path d="M41.1,54.4c-2.6,0-4.9,0.6-7,1.9c-1.4,0.8-2.1,0.6-2.3-1c-0.2-2.3-0.3-4.7-0.1-7.1c0.4-4.7,1-9.5,1.5-14.2
	c0.4-3.3,1.5-6.2,4.4-8.3c-0.7-1.2-1.4-2.4-2.1-3.6c-0.6-1-0.4-1.7,0.8-2.1c7.9-2.8,15.7-2.8,23.6,0c1.3,0.4,1.4,0.9,0.8,2.1
	c-0.6,1.1-1.3,2.3-1.8,3.1c1.2,1.9,2.4,3.5,3.3,5.3c0.6,1.3,0.8,2.9,0.9,4.3c0.6,4.7,1.1,9.3,1.5,14c0.2,2.1,0,4.2-0.2,6.3
	c-0.2,1.7-0.9,1.9-2.4,1c-2.1-1.3-4.4-1.9-7-1.9c0.2,0.8,0.2,1.5,0.4,2.1c0.3,0.8,0.7,1.2,1.7,0.7c0.4-0.2,1.2-0.2,1.6,0
	c3.1,2,6.3,3.5,9.7,4.8c2.8,1.1,4.4,3.5,4.5,6.5c0.1,3.4,0.8,6.7,1.9,9.9c0.4,1.2,0.2,1.9-1,2.4c-0.4,0.2-0.8,0.8-0.8,1.2
	c-0.1,1.2,0.1,2.4-0.1,3.6c-0.1,0.5-0.6,1.2-1,1.3c-0.8,0.2-1.1-0.5-1.1-1.3c0-1.2,0-2.3,0-3.7c-2.1,0.9-4.1,1.6-6.1,2.5
	c-0.2,0.1-0.2,0.8-0.4,1.2c-0.3,0.5-0.7,1-1.1,1.4c-0.4-0.5-1-0.9-1-1.4c-0.1-1.6-0.1-3.1,0-4.7c0-0.5,0.7-0.9,1.1-1.4
	c0.3,0.5,0.8,0.9,1,1.5c0.1,0.3,0,0.7,0,1.2c2.8-1.1,5.5-2.2,8.1-3.3c-0.5-2.6-1-5-1.5-7.5c-0.2-0.9-0.1-1.8-0.2-2.7
	c-0.2-2.1-1.1-3.8-3.1-4.7c-1.2-0.6-2.4-1-3.6-1.4c-0.4-0.1-1,0.1-1.4,0.4c-4.6,3-9.6,4.7-15.1,4.5c-1.9-0.1-3.8-0.4-5.6-0.9
	c-1.5-0.4-2.9-0.5-4.3-0.1c-1.1,0.3-2.3,0.6-3.5,0.9c0,1,0,2,0,2.9c0,4.8,0,9.6,0,14.4c0,0.3,0.1,0.7,0,0.9
	c-0.3,0.5-0.7,0.9-1.1,1.3c-0.4-0.4-1-0.9-1-1.3c0-1-0.4-1.4-1.3-1.7c-1.7-0.6-3.4-1.3-5.3-2.1c0,1.4,0,2.5,0,3.7
	c0,0.8-0.3,1.5-1.1,1.3c-0.4-0.1-0.9-0.8-1-1.3c-0.2-0.8-0.1-1.6,0-2.4c0.1-1.3,0.2-2.5-1.6-2.9c-0.3-0.1-0.6-1-0.5-1.4
	c1.2-3.6,1.9-7.2,2.1-10.9c0.2-2.9,1.9-5.1,4.6-6.1c3.3-1.2,6.4-2.8,9.4-4.6c0.4-0.3,1.1-0.4,1.6-0.2c1.2,0.4,1.6,0.3,1.9-0.9
	c0.1-0.3,0.2-0.6,0.2-0.9C41.1,55,41.1,54.8,41.1,54.4z M42.5,35.5c-0.8,1-1.5,2.5-2.7,3.4c-1.2,1-1.4,2.1-1.5,3.5
	c-0.2,3.7,0.8,6.9,3.4,9.6c5,4.9,7.8,4.9,12.7-0.1c2.3-2.3,3.6-5,3.3-8.4c-0.1-1.2,0-2.3,0-3.5c0-2.5-1.4-3.9-3.9-4
	c-1.3,0-2.5,0.1-3.8,0C47.6,35.9,45.1,35.7,42.5,35.5z M38.8,27.6c-2.2,1.6-3,3.7-3.3,6.1c-0.6,4.9-1.1,9.8-1.6,14.7
	c-0.2,1.8-0.2,3.6-0.3,5.5c2-0.6,3.7-1.1,5.5-1.7c-1.6-2.2-2.7-4.5-2.7-7.2c0-1.6,0-3.1,0-4.7c0-0.9,0.3-1.5,1.1-2
	c1.9-1.2,3.1-2.8,3.3-5.1c0.1-1.1,0.9-1.5,1.8-0.8c1.5,1.2,3.2,1.5,5.1,1.5c2.2,0,4.5,0,6.7,0c3,0.1,5.5,2.1,5.7,4.9
	c0.2,2.7,0.2,5.5-0.2,8.2c-0.3,1.8-1.4,3.5-2.1,5.3c1.5,0.5,3.2,1,5.1,1.6c0-0.7,0.2-1.5,0.1-2.1c-0.4-3.9-1-7.7-1.4-11.6
	c-0.2-2.1-0.2-4.3-0.5-6.4c-0.3-2.3-1.1-4.4-3.3-6c-0.6,2.5-2.4,2.3-4.3,2.2c-3.5,0-7.1-0.1-10.6,0C40.8,29.9,39.3,29.8,38.8,27.6z
	 M37.8,21.8c1,1.8,2,3.6,3,5.3c0.2,0.3,0.7,0.6,1,0.6c4.1,0,8.3,0,12.4,0c0.3,0,0.8-0.2,1-0.5c1.1-1.7,2-3.5,3.1-5.4
	C51.5,19.6,44.7,19.6,37.8,21.8z M36.3,64.6c-1.1-0.7-2.1-1.4-3.1-1.9c-0.2-0.1-0.6-0.2-0.9-0.1c-1.4,0.5-2.8,0.9-4.1,1.6
	c-1.8,0.9-2.6,2.5-2.7,4.5c-0.1,0.9,0,1.8-0.2,2.7c-0.5,2.5-1,5-1.5,7.6c2.6,1,5.3,2.1,8.1,3.2c0-0.4,0-0.7,0-1c0-4.6,0-9.3,0-13.9
	c0-1.2,0.4-1.8,1.6-2C34.4,65.1,35.2,64.9,36.3,64.6z M42,64.3c5.4,2.5,14.5,0.7,19.1-3.2c-1-0.6-2.1-1.2-3.1-1.9
	c-3.8,3.5-8.2,4.8-13.1,3.6C43.3,62.5,42.5,62.7,42,64.3z M41.7,59.2c3.6,2.7,9.7,2.6,12.7-0.1c-0.5-1-1-1.9-1.6-3
	c-3.1,2.4-6.4,2.3-9.5,0C42.8,57.2,42.3,58.1,41.7,59.2z M34.8,61.3c1.7,0.9,3.2,1.6,4.7,2.4c0.6-0.8,1-1.5,1.5-2.1
	c-1-0.8-1.9-1.5-2.9-2.2C37.2,59.9,36.2,60.5,34.8,61.3z"/>
<path d="M55.7,81.6c-1,0-2,0.1-2.9,0c-0.5-0.1-0.9-0.7-1.4-1.1c0.4-0.3,0.9-1,1.3-1c2-0.1,3.9-0.1,5.9,0c0.5,0,0.9,0.7,1.4,1.1
	c-0.5,0.4-0.9,0.9-1.4,1C57.6,81.7,56.6,81.6,55.7,81.6z"/>
<path d="M41.6,71.4c-0.5-0.8-1-1.3-0.9-1.7c0-0.3,0.7-0.9,1-0.9c0.4,0,0.9,0.6,0.9,1C42.6,70.2,42.1,70.6,41.6,71.4z"/>
<path d="M37.3,69.3c0.5,0.7,1,1.1,1,1.4c-0.1,0.4-0.7,0.8-1,1.1c-0.3-0.4-0.9-0.7-1-1.2C36.3,70.4,36.8,70,37.3,69.3z"/>
</svg>
