<?xml version="1.0" encoding="utf-8"?>
<!-- Generator: Adobe Illustrator 24.0.1, SVG Export Plug-In . SVG Version: 6.00 Build 0)  -->
<svg version="1.1" id="Layer_1" xmlns="http://www.w3.org/2000/svg" xmlns:xlink="http://www.w3.org/1999/xlink" x="0px" y="0px"
	 viewBox="0 0 100 100" style="enable-background:new 0 0 100 100;" xml:space="preserve">
<path d="M65.9,43.5c1.9-0.4,3.7-1,5.6-1c3.1-0.1,5.4,1.7,7.1,4.3c5,7.8,3.6,19-4.3,24.5c-0.1,0.1-0.2,0.2-0.3,0.3c1.2,1,2.4,2,3.5,3
	c1.1,1.1,2.3,2.2,1.7,3.9c-0.5,1.6-2,2.1-3.5,2.3c-2,0.3-4,0.6-6,0.6c-7.9,0-15.6-0.8-23.3-2.6c-1.7-0.4-3.5-1-5.1-1.7
	c-2.5-1-4.5-2.6-5.1-5.5c-1.1,1-2,2-3,2.8c-1.4,1-2.9,2.1-4.5,2.8c-2.1,0.9-4.6,0-5.9-1.9c-1.1-1.5-0.9-3.5,0.4-5
	c0.6-0.7,1.4-1.3,2.1-1.9c-1-0.6-2-1.1-2.9-1.9c-2.5-2-2.5-4.9-0.3-7.2c0.3-0.3,0.5-0.9,0.5-1.4c0-6.9,0-13.9,0.1-20.8
	c0-0.7,0.3-1.6,0.7-2.2c1.6-2.2,3.3-4.4,4.9-6.6c0.3-0.5,0.5-1.1,0.6-1.7c0.1-1.5,0-3,0-4.6c0-1.1,0.5-1.6,1.6-1.6c6,0,12,0,18,0
	c1.1,0,1.6,0.5,1.5,1.6c0,0.1,0,0.2,0,0.4c-0.6,3.7,0.5,6.7,3.2,9.3c2.6,2.6,3.7,5.7,3.1,9.3c-0.2,1,0.2,1.4,1.3,1.6
	c1.7,0.4,3.3,1.2,4.9,1.9c0.4,0.2,0.7,0.5,1.4,0.6c-0.2-1.2-0.4-2.4-0.7-3.6c-0.5-1.9-1.2-3.7-1.6-5.5c-0.5-2.3,0.1-4.5,1.2-6.6
	c0.6,0.3,1.2,0.6,1.9,0.9c-1.6,2.9-1.2,5.7-0.1,8.6C65.1,40.5,65.4,42.2,65.9,43.5z M66.5,48.4c0.5,0.3,1.1,0.7,1.7,1
	c-1.3,1.9-2.9,2.7-5,2.6c-1.8-0.1-3.1-1-4.1-2.6c0.7-0.4,1.2-0.7,1.6-0.9c0.7,0.5,1.4,0.9,2.2,1.5c0.2-0.8,0.4-1.4,0.6-2.2
	c-1.5-0.9-3-1.9-4.6-2.6c-3.1-1.3-5.9-0.6-7.9,2c-2.7,3.5-3.4,7.5-3,11.7c0,0.3,0.4,0.8,0.8,0.9c7.5,2.1,14.4,5.6,21.2,9.4
	c2.1,1.2,2.1,1.2,4-0.3c0.4-0.4,0.9-0.8,1.3-1.2c4.8-5.1,5.6-13.7,1.7-19.5c-0.6-0.9-1.4-1.8-2.2-2.4c-2.2-1.6-4.5-1.3-6.9-0.4
	c-1.9,0.7-2.3,2.1-2.3,3.9C65.8,48.9,66.1,48.7,66.5,48.4z M70.3,71.6c-5.7-2.8-11.4-5.6-17.2-8.4c-1,3.3-1.8,6.2-2.7,9.2
	c-0.7-0.2-1.3-0.4-2-0.6c0.9-3.1,1.7-6,2.6-9.3c-2.3-0.4-4.4-0.9-6.6-1.1c-2.1-0.2-3.8,0.8-4.6,2.8c-0.6,1.6-1.2,3.2-1.5,4.9
	c-0.5,2.7,0.2,4.3,2.6,5.5c5.1,2.6,10.7,3.2,16.3,4c0.4-1.3,0.8-2.5,1.2-3.8c0.7,0.2,1.3,0.3,2,0.5c-0.3,1.2-0.6,2.3-1,3.5
	c4.6,0.5,9,0.8,13.5,0.4c1.1-0.1,2.3-0.4,3.4-0.7c0.8-0.2,1.1-0.8,0.5-1.4c-1.5-1.4-3-2.7-4.6-4.2c-0.4,1.3-0.7,2.3-1.1,3.3
	c-0.7-0.2-1.3-0.4-2-0.6C69.5,74.3,69.9,73.1,70.3,71.6z M26.1,60.2c-2,0.1-3.1,0.7-3.4,2c-0.3,1.2,0.3,2.4,1.9,3.3
	c1.2,0.6,2.5,1,3.7,1.6c0.5,0.2,0.8,0.7,1.3,1.1c-0.4,0.4-0.7,0.9-1.2,1.2c-1.1,0.8-2.5,1.3-3.5,2.2c-1.1,1-0.8,2.2,0.4,3.1
	c1.3,0.9,2.5,0.8,3.8,0c2.8-1.6,5.1-3.8,7-6.5c0.8-1.2,1.3-2.9,1.2-4.3c-0.2-2.4-0.9-4.8-1.6-7.2c-0.3-1.1-1-2.1-1.7-3.1
	c-0.7-0.9-2.6-1.1-3.5-0.4c-1.1,0.7-1,1.8-0.6,2.9c0.4,1,1.1,1.9,1.6,2.9c0.2,0.5,0.3,1.1,0.5,1.6c-0.6,0.1-1.2,0.4-1.8,0.4
	C28.8,60.8,27.5,60.4,26.1,60.2z M24.8,58.2c1.2,0,2.3,0,3.5,0c-0.2-0.6-0.5-1.1-0.6-1.7c-1.1-3.6,1.4-6.3,5.1-5.7
	c1.4,0.2,2.5,0.9,3.2,2.1c0.8,1.3,1.4,2.7,1.9,4.1c0.5,1.4,0.8,2.8,1.2,4.3c0.5-0.4,0.8-0.8,1.2-1c1.1-0.4,1.2-1.2,1.2-2.2
	c0-3.4,0-6.7,0-10.1c0-0.7,0-1.5,0-2.2c-5.7,0-11.2,0-16.8,0C24.8,50,24.8,54,24.8,58.2z M45.6,59.2c0.2-2.1,0.2-4.2,0.6-6.2
	c1-4.5,2.7-8.5,7.5-10.3c0.2-0.1,0.4-0.3,0.4-0.5c0-1.6,0-3.2,0-4.8c-3.6,0-7,0-10.4,0c0,7.3,0,14.6,0,21.8
	C44.4,59.2,45,59.2,45.6,59.2z M41.5,43.5c0-1.7-0.1-3.4,0-5.1c0-1-0.3-1.2-1.2-1.2c-4.8,0-9.7,0-14.5,0c-0.4,0-0.7,0.1-1.1,0.1
	c0,2.1,0,4.1,0,6.1C30.4,43.5,35.9,43.5,41.5,43.5z M25.8,35.2c0.7,0,1.1,0,1.4,0c3.7,0,7.4-0.2,11.1,0.1c2.8,0.2,4.7-0.6,6.1-3.1
	c0.6-1.1,1.5-2.1,2.3-3.2c-0.4-0.1-0.5-0.1-0.6-0.1c-5,0-9.9,0-14.9,0c-0.4,0-0.9,0.3-1.1,0.6C28.7,31.2,27.3,33.1,25.8,35.2z
	 M31.1,26.7c5.6,0,11.1,0,16.6,0c0-1.4,0-2.7,0-4c-5.6,0-11.1,0-16.6,0C31.1,24.1,31.1,25.3,31.1,26.7z M44.8,35.1
	c2.8,0,5.5,0,8.2,0c-1.4-1.9-2.7-3.6-4.1-5.5C47.5,31.5,46.2,33.2,44.8,35.1z"/>
<path d="M71.2,38.2c-2-0.1-3.6-0.8-4.7-2.5c-0.3-0.5-0.3-1.5,0-1.9c2.1-3.3,7.2-3.3,9.5-0.1c0.5,0.7,0.5,1.4,0,2.1
	C74.8,37.3,73.2,38.1,71.2,38.2z M68.8,34.8c1.7,1.5,3.5,1.4,4.9-0.1C72.1,33.1,70.2,33.2,68.8,34.8z"/>
</svg>
