<?xml version="1.0" encoding="utf-8"?>
<!-- Generator: Adobe Illustrator 24.0.1, SVG Export Plug-In . SVG Version: 6.00 Build 0)  -->
<svg version="1.1" id="Layer_1" xmlns="http://www.w3.org/2000/svg" xmlns:xlink="http://www.w3.org/1999/xlink" x="0px" y="0px"
	 viewBox="0 0 100 100" style="enable-background:new 0 0 100 100;" xml:space="preserve">
<path d="M59.9,76.9c-2.3-3.2-3.4-6.7-3.8-10.5c-0.1-0.6-0.3-1.3-0.7-1.9c-1.5-2.4-3.1-4.7-4.7-7c-1-1.5-0.7-2.2,0.8-3
	c3-1.5,6.8-0.8,9,1.9c0.3,0.4,0.7,0.9,1.1,1.4c0.3-3.5,0.6-6.9,0.9-10.1c-1.4,0.3-2.9,0.8-4.6,1.1c-1,0.2-1.9-0.2-2-1.4
	c0-1.1,0.7-1.5,1.8-1.5c4.1-0.2,7-3.7,7-6.9c0-4.3,0.1-8.7,0.1-13c0-1-0.5-1.7-1.5-1.6c-1,0-1.4,0.7-1.4,1.7c0,1,0,2.1,0,3.1
	c0,1.1-0.4,1.9-1.6,1.9C59.3,30.8,59,30,59,29c0-1.9,0-3.9,0-5.8c0-1.1-0.3-2.1-1.6-2.1c-1.2,0-1.4,1-1.4,2c0,1.5,0,3,0,4.4
	c0,1-0.5,1.8-1.6,1.8c-1,0-1.4-0.8-1.4-1.7c0-2,0-4,0-5.9c0-1.1-0.3-2.1-1.6-2c-1.2,0-1.4,1-1.4,2c0,1.4,0,2.9,0,4.3
	c0,1.1-0.4,1.9-1.6,1.9c-1.1,0-1.4-0.9-1.4-1.9c0-1.9,0-3.9,0-5.8c0-1.1-0.3-2.1-1.6-2c-1.2,0-1.4,1-1.4,2c0,1.9,0,3.9,0,5.8
	c0,1.1-0.4,1.9-1.6,1.9c-1.1,0-1.4-0.9-1.4-1.9c0-2,0.1-4.1,0-6.1c-0.1-1.2-0.4-2.5-1-3.5c-1-1.7-2.8-1.7-4,0
	c-1.2,1.8-1.3,3.8-0.4,5.8c1.7,3.3,2.3,6.8,2.4,10.4c0.1,3.8,0.9,7.4,2.8,10.9c0.5-0.7,0.9-1.3,1.4-1.9c2.2-2.8,6.1-3.7,9.2-2.1
	c1.6,0.8,1.8,1.6,0.8,3.1c-1.4,2.1-2.7,4.2-4.1,6.1c-0.8,1.2-1.1,2.4-1.4,3.8c-0.4,2.2-1,4.3-1.8,6.4c-1,2.9-2.3,5.7-3.4,8.6
	c-0.4,1.1-0.4,2.3-0.5,3.5c-0.1,1-0.5,1.8-1.6,1.7c-1,0-1.4-0.7-1.4-1.7c0-0.9,0-1.8,0-2.9c-1.5,1.9-3,3.6-4.5,5.4
	c-2.5,3.1-2.7,3.1-5.1-0.1c-2.5-3.3-5.1-6.7-7.6-10c-1.1-1.5-1-2.1,0.5-3.1c2.1-1.4,4.1-2.9,6.3-4.2c1.1-0.6,1.2-1.3,0.9-2.4
	c-0.7-2.4-1.2-4.8-1.8-7.2c-0.6-2.1,0.1-3.8,1.8-5.1c2-1.6,4-3.2,6-4.8c0.4-0.4,0.7-1.1,0.7-1.7c0-1.7,0-3.4-0.3-5
	c-0.5-2.2-1.1-4.4-1.9-6.5c-1.1-2.8-1.3-5.6,0.2-8.3c2.2-4,6.8-4.2,9.4-0.5c0.2,0.2,0.3,0.5,0.5,0.8c2.1-0.9,4.1-0.7,5.8,1.1
	c0.2,0.2,0.6,0.2,0.9,0.1c2.2-0.7,3.9,0,5.3,1.6c3.6-0.8,4.8-0.3,6.6,2.7c3.9-0.6,6,1.2,6,5.2c0,4.6,0,9.2-0.3,13.8
	c-0.2,2.6-1.1,5.1-1.8,7.6c-0.3,1-0.1,1.6,0.7,2.2c2.7,2,5.2,4.2,7.9,6.3c1.8,1.4,2.5,3.1,1.8,5.3c-0.6,2.3-1.1,4.7-1.8,7
	c-0.3,1.2-0.2,1.9,0.9,2.6c2.2,1.6,4.3,3.3,6.5,4.9c1.4,1.1,1.5,1.9,0.2,3.1c-2.7,2.6-5.5,5.3-8.2,7.9c-1.3,1.2-1.7,1.2-3,0
	c-2.8-2.7-5.6-5.4-8.7-8.3c-0.3,0.5-0.6,1-1,1.3c-4,3.8-8.6,4.9-13.9,3.3c-1-0.3-2-0.8-1.6-2.1c0.4-1.3,1.4-1.1,2.4-0.8
	C52.7,82.1,57.3,80.7,59.9,76.9z M36.1,39.5c-1.8,1.4-3.6,2.9-5.4,4.3c-0.9,0.7-1,1.4-0.8,2.4c0.8,2.8,1.4,5.7,2.2,8.5
	c0.4,1.4,0.1,2.3-1.2,3.1c-2.3,1.4-4.6,3-6.9,4.6c2.5,3.3,4.9,6.4,7.3,9.6c3-3.6,5.8-7.2,8.7-10.6c2.7-3.1,3.9-6.7,4.2-10.7
	c0.1-0.8,0.4-1.6,0.8-2.3c1.4-2.2,2.8-4.3,4.3-6.6c-2.1-0.4-3.6,0.2-4.7,1.8c-0.8,1.1-1.5,2.3-2.3,3.4c-0.4,0.5-1.1,1-1.6,1
	c-0.5-0.1-1.1-0.7-1.4-1.3C38.1,44.4,37.1,42,36.1,39.5z M64.9,52.5c0,2,0,3.6,0,5.2c0,1.6,0.1,3.2,0,4.7c-0.1,0.7-0.5,1.6-1.1,1.8
	c-0.5,0.2-1.5-0.4-1.9-0.9c-1.2-1.5-2.1-3.2-3.3-4.8c-1.2-1.7-2.7-2.2-4.7-1.7c1.4,2.2,2.9,4.3,4.2,6.4c0.4,0.7,0.7,1.6,0.8,2.4
	c0.3,3.3,0.9,6.7,3.2,9.2c3.1,3.3,6.6,6.4,10.1,9.7c2.1-2.4,4.2-4.7,6.3-7.1c-1.8-1.4-3.9-3.1-6.1-4.6c-1.4-1-1.8-2-1.3-3.6
	c0.8-2.7,1.5-5.5,2.1-8.3c0.1-0.6,0-1.5-0.3-1.9C70.5,56.9,67.9,54.9,64.9,52.5z"/>
<path d="M51.5,30.8c3.5,0.1,6.6,1.3,9.5,3.1c0.8,0.5,1.2,1.2,0.7,2.1c-0.6,1-1.4,0.9-2.3,0.4c-0.4-0.2-0.8-0.4-1.2-0.7
	c-4.5-2.5-8.9-2.5-13.4,0c-0.5,0.3-0.9,0.5-1.4,0.8c-0.8,0.5-1.7,0.3-2-0.5c-0.2-0.6,0.1-1.7,0.5-2C44.9,32.1,48.1,31,51.5,30.8z"/>
</svg>
