<?xml version="1.0" encoding="utf-8"?>
<!-- Generator: Adobe Illustrator 25.0.1, SVG Export Plug-In . SVG Version: 6.00 Build 0)  -->
<svg version="1.1" id="Layer_1" xmlns="http://www.w3.org/2000/svg" xmlns:xlink="http://www.w3.org/1999/xlink" x="0px" y="0px"
	 viewBox="0 0 2042.24 1963.52" style="enable-background:new 0 0 2042.24 1963.52;" xml:space="preserve">
<style type="text/css">
	.st0{fill:#FFFFFF;}
	.st1{fill:#3B78AF;}
	.st2{fill:#FE9F73;}
	.st3{fill:#33192C;}
	.st4{fill:#3AAAA4;}
	.st5{fill:#F07162;}
	.st6{fill:#EA5942;}
	.st7{fill:#3F9896;}
	.st8{fill:#7FC6A6;}
	.st9{fill:#21111D;}
	.st10{fill:#7CC3F7;}
	.st11{fill:#8BBD40;}
	.st12{fill:#F9B870;}
	.st13{fill:#FEC786;}
	.st14{fill:#E2F2F1;}
	.st15{fill:#4C222E;}
	.st16{fill:#61A3C5;}
	.st17{fill:#F7AB48;}
	.st18{fill:#49263E;}
</style>
<rect x="-97.07" y="-36.48" class="st0" width="2624" height="2000"/>
<g>
	<path class="st1" d="M1676.56,1720.52c223.37-422.63,86.06-934.15-24.67-1115.71c-301.46-494.33-339.47-44.59-549.76-44.9
		c-226.09-0.33-207.14-257.04-523.24-224.5C271,367.1,151.61,805.21,135.53,1131.53c-16.39,332.55,36.81,512.92,68.66,588.99
		H1676.56z"/>
	<g>
		<g>
			<g>
				<g>
					<g>
						<g>
							<polygon class="st2" points="1531.81,1701.39 1584.34,1702.12 1585.12,1650.13 1532.8,1643.3 							"/>
						</g>
					</g>
				</g>
			</g>
		</g>
	</g>
	<g>
		<g>
			<g>
				<g>
					<g>
						<g>
							<g>
								<g>
									<g>
										<path class="st3" d="M1479.25,1711.12h105.2v-21.46c0,0-7.65-10.3-19.3-5.04c0,0-17.62,12.5-33.16-2.63l-38.58,17.11
											C1493.42,1699.11,1479.25,1703.83,1479.25,1711.12z"/>
									</g>
								</g>
							</g>
						</g>
					</g>
				</g>
			</g>
		</g>
		<g>
			<g>
				<rect x="1584.07" y="1689.66" width="0.77" height="18.23"/>
			</g>
		</g>
		<g>
			<g>
				<path d="M1549.36,1689.87c-1.48,0-2.37-0.13-2.4-0.13l0.11-0.76c0.09,0.01,9.2,1.29,17.86-4.67l0.44,0.64
					C1559.17,1689.21,1552.73,1689.87,1549.36,1689.87z"/>
			</g>
		</g>
		<g>
			<g>
				
					<rect x="1574.45" y="1702.5" transform="matrix(0.8297 -0.5583 0.5583 0.8297 -681.9692 1170.7014)" width="5.94" height="0.77"/>
			</g>
		</g>
		<g>
			<g>
				
					<rect x="1570.89" y="1701.48" transform="matrix(0.829 -0.5593 0.5593 0.829 -682.6563 1171.2914)" width="5.94" height="0.77"/>
			</g>
		</g>
		<g>
			<g>
				<g>
					<g>
						<g>
							<g>
								<g>
									<g>
										<path class="st4" d="M1585.08,1718.63h-105.86c-2.51,0-4.54-2.03-4.54-4.54v-1.26c0-2.51,2.03-4.54,4.54-4.54h105.86
											c1.01,0,1.83,0.82,1.83,1.83v6.69C1586.91,1717.82,1586.09,1718.63,1585.08,1718.63z"/>
									</g>
								</g>
							</g>
						</g>
					</g>
				</g>
			</g>
		</g>
		<g>
			<g>
				<path d="M1480.2,1708.46l-0.7-0.33c0.09-0.18,2.2-4.52,10.1-7.89c7.76-3.31,41.89-18.45,42.23-18.6l0.31,0.71
					c-0.34,0.15-34.48,15.29-42.24,18.6C1482.31,1704.19,1480.22,1708.42,1480.2,1708.46z"/>
			</g>
		</g>
		<g>
			<g>
				<g>
					<g>
						<g>
							<g>
								<g>
									<g>
										<path d="M1476.26,1717.7c-1.25-1.06-1.96-2.6-1.96-4.24c0-3.06,2.49-5.56,5.56-5.56h104.46c1.64,0,2.98,1.34,2.98,2.98
											v5.16h-0.77v-5.16c0-1.22-0.99-2.21-2.21-2.21h-104.46c-2.64,0-4.78,2.15-4.78,4.78c0,1.41,0.62,2.74,1.69,3.65
											L1476.26,1717.7z"/>
									</g>
								</g>
							</g>
						</g>
					</g>
				</g>
			</g>
		</g>
	</g>
	<g>
		<g>
			<g>
				<g>
					<g>
						<g>
							<polygon class="st2" points="1630.63,1700.64 1683.16,1701.36 1683.94,1649.37 1631.62,1642.55 							"/>
						</g>
					</g>
				</g>
			</g>
		</g>
	</g>
	<path class="st2" d="M880.39,1095.74c0,0,24.28,52.63,35.15,62.96c10.87,10.34,137.9,18.47,137.9,18.47l3.36-39.15l-102.22-23.39
		l-26.8-50.69L880.39,1095.74z"/>
	<path class="st5" d="M935.39,1130.37c0.26-0.03,0.51-0.12,0.73-0.28l19.42-14.01c0.68-0.49,0.83-1.43,0.34-2.11
		c-0.49-0.68-1.43-0.83-2.11-0.34l-19.42,14.01c-0.68,0.49-0.83,1.43-0.34,2.11C934.34,1130.2,934.87,1130.42,935.39,1130.37z"/>
	<path class="st3" d="M871.95,921.77c0,0,5.87-18.73-16.19-31.36s-22.52,13.1-30.15,16.35s-22.22,2.02-25.82,17.38
		c-3.6,15.36,0.62,25.84-7.42,29.11c-8.05,3.27-32.88,27.54-22.6,54.4c10.28,26.85,37.05,22.18,37.05,22.18
		s106.31-7.97,110.21-36.33c3.9-28.35-7.73-39.05-22.25-46.76C885.87,942.01,868.73,939.23,871.95,921.77z"/>
	<path class="st2" d="M862.01,931.67c0,0,13.35,36.58,8.73,46.25c0,0-2.19,5.09-9.58,6.74l4.84,23.61l-33.32,6.83l-15.87-77.47
		L862.01,931.67z"/>
	<path class="st5" d="M857.19,963.53c-0.14,0.03-0.29-0.04-0.35-0.18c-0.07-0.16,0-0.34,0.16-0.41c1.87-0.82,2.61-3.48,2.8-4.34
		c-3.08-0.91-5.17-2.49-6.21-4.7c-1.7-3.6,0-7.51,0.07-7.68c0.07-0.16,0.25-0.23,0.41-0.16s0.23,0.25,0.16,0.41
		c-0.02,0.04-1.66,3.83-0.08,7.17c0.99,2.1,3.04,3.6,6.09,4.45l0.27,0.07l-0.05,0.28c-0.03,0.16-0.69,3.96-3.22,5.07
		C857.24,963.52,857.22,963.52,857.19,963.53z"/>
	<path class="st5" d="M861.26,995.21l-1.47-9.58c0,0-16.35,1.53-27.25-3.2C832.54,982.43,848.02,993.32,861.26,995.21z"/>
	<path class="st3" d="M835.31,951.34c-0.15,0.03-0.31,0.01-0.46-0.08c-0.29-0.18-0.38-0.57-0.19-0.85c0.06-0.1,6.21-9.65,14.5-5.38
		c0.3,0.16,0.42,0.53,0.27,0.83c-0.16,0.3-0.53,0.42-0.84,0.27c-7.28-3.75-12.66,4.58-12.89,4.94
		C835.62,951.21,835.47,951.3,835.31,951.34z"/>
	<path class="st3" d="M855.66,942.36c-0.17,0.03-0.35,0-0.5-0.12c-0.27-0.21-0.32-0.6-0.11-0.87c0.19-0.24,4.65-5.98,8.68-3.74
		c0.3,0.17,0.41,0.54,0.24,0.84c-0.17,0.3-0.54,0.41-0.84,0.24c-3.1-1.72-7.05,3.36-7.09,3.41
		C855.93,942.25,855.8,942.33,855.66,942.36z"/>
	<path d="M864.05,948.97c0.19,0.93-0.41,1.85-1.34,2.04c-0.93,0.19-1.85-0.41-2.04-1.34c-0.19-0.93,0.41-1.85,1.34-2.04
		C862.95,947.43,863.86,948.04,864.05,948.97z"/>
	<path d="M846.73,952.52c0.19,0.93-0.41,1.85-1.34,2.04c-0.93,0.19-1.85-0.41-2.04-1.34c-0.19-0.93,0.41-1.85,1.34-2.04
		C845.63,950.98,846.54,951.58,846.73,952.52z"/>
	<path class="st2" d="M829.05,963.68c1.07,5.24-2.3,10.35-7.54,11.42s-10.35-2.3-11.42-7.54s2.3-10.35,7.54-11.42
		S827.98,958.45,829.05,963.68z"/>
	<path class="st5" d="M820.07,971.62c-1.99,0.41-3.63-0.81-4.37-2.22c-0.88-1.66-0.64-3.5,0.62-4.69c1.79-1.69,3.8-1.33,4.94-0.9
		c-0.61-0.93-1.39-1.54-2.3-1.82c-2.07-0.64-4.21,0.58-4.23,0.59c-0.15,0.09-0.34,0.03-0.42-0.11c-0.09-0.15-0.03-0.34,0.11-0.42
		c0.1-0.06,2.4-1.36,4.72-0.64c1.34,0.42,2.4,1.42,3.15,2.98l0.48,1l-0.93-0.61c-0.11-0.07-2.79-1.79-5.09,0.39
		c-1.27,1.2-1.06,2.88-0.49,3.95c0.59,1.12,1.93,2.29,3.74,1.89c0.16-0.04,0.33,0.07,0.37,0.24s-0.07,0.33-0.24,0.37
		C820.1,971.61,820.09,971.62,820.07,971.62z"/>
	<path class="st2" d="M862.01,931.67c0,0-5.87-14-25.73-11.61s-19.48,17.57-19.48,17.57l23.21-0.05l20.55-5.73L862.01,931.67z"/>
	<path class="st3" d="M859.48,919.31c0,0-9.71,14.38-26.02,14.91c0,0-1.31,20.33-12.9,21.77c-11.59,1.45-10.84-26.49-10.84-26.49
		s19.54-13.05,20.89-13.33c1.35-0.28,23.69-6.26,23.69-6.26L859.48,919.31z"/>
	<path class="st6" d="M850.78,957.31c-0.48,0.1-0.64-0.65-0.15-0.75C851.11,956.46,851.26,957.21,850.78,957.31L850.78,957.31z"/>
	<path class="st6" d="M848.77,959.13c-0.48,0.1-0.64-0.65-0.15-0.75C849.1,958.28,849.26,959.03,848.77,959.13L848.77,959.13z"/>
	<path class="st6" d="M844.07,957.27c-0.48,0.1-0.64-0.65-0.15-0.75C844.4,956.42,844.55,957.17,844.07,957.27L844.07,957.27z"/>
	<path class="st6" d="M841.07,960.71c-0.48,0.1-0.64-0.65-0.15-0.75C841.4,959.86,841.55,960.61,841.07,960.71L841.07,960.71z"/>
	<path class="st6" d="M836.6,957.83c-0.48,0.1-0.64-0.65-0.15-0.75C836.93,956.98,837.08,957.73,836.6,957.83L836.6,957.83z"/>
	<path class="st6" d="M836.35,963.53c-0.48,0.1-0.64-0.65-0.15-0.75C836.68,962.68,836.84,963.43,836.35,963.53L836.35,963.53z"/>
	<path class="st6" d="M857.86,953.57c-0.48,0.1-0.64-0.65-0.15-0.75C858.19,952.71,858.35,953.47,857.86,953.57L857.86,953.57z"/>
	<path class="st6" d="M861.28,956.04c-0.48,0.1-0.64-0.65-0.15-0.75C861.61,955.19,861.76,955.94,861.28,956.04L861.28,956.04z"/>
	<path class="st6" d="M864.39,953.99c-0.48,0.1-0.64-0.65-0.15-0.75C864.72,953.14,864.87,953.89,864.39,953.99L864.39,953.99z"/>
	<path class="st6" d="M865.73,959.27c-0.48,0.1-0.64-0.65-0.15-0.75C866.06,958.42,866.22,959.17,865.73,959.27L865.73,959.27z"/>
	<path class="st6" d="M867.63,955.62c-0.48,0.1-0.64-0.65-0.15-0.75C867.96,954.77,868.12,955.52,867.63,955.62L867.63,955.62z"/>
	<path class="st6" d="M866.09,951.09c-0.48,0.1-0.64-0.65-0.15-0.75C866.42,950.24,866.57,950.99,866.09,951.09L866.09,951.09z"/>
	<path class="st6" d="M846.55,962.06c-0.48,0.1-0.64-0.65-0.15-0.75C846.88,961.21,847.03,961.96,846.55,962.06L846.55,962.06z"/>
	<polygon class="st2" points="843.92,1342.91 854.48,1690 907.04,1693.56 945.64,1329.47 	"/>
	<polygon class="st2" points="850.68,1342.91 759.84,1688.36 706.02,1693.56 752.08,1329.47 	"/>
	<path class="st7" d="M707.01,1384.03c2.4-18.65,26.51-100.67,35.68-126.86s30.39-69.03,30.39-69.03l16.47-31.33l-15.52-41.48
		l-4.12,9.06c-36.89-11.53-62.96-36.02-62.96-36.02l5.94-8.38l17.2-23.25l18.03-22.46l16.28-17.03l18.7-9.03l8.93-1.67
		c0.46-0.17,0.92-0.29,1.4-0.35c0.46-0.06,0.92-0.11,1.39-0.17l11.33-2.12l1.44,0.93c12.48-0.93,24.73-1.26,28.66-1.36l0,0
		c6.23-0.62,42.19-0.03,42.19-0.03l0.12,0.08c5.22,0.61,37.06,3.95,43.19,10.2c1.65,1.68,10.23,18.28,19.11,52.67l4.1,19.12l-4.18,3
		l-5.41,4.7l-9.29,3.42l-2.23,3.16l-3.62,55.27v3.3l4.86,8.73l10.87,23.83l6.42,16.99l7.86,25.47l3.98,17.02l4.33,20.78l3.59,17.87
		l2.5,15.08l1.94,16.79c0,0,1.72,10.11,1.72,10.39s1.3,16.23,1.3,16.23l0.79,14.03l1.32,22.08l-0.69,17.31l0.69,14.46l-3.6,22.68
		c-117.21,50.57-269.4-10.95-269.4-10.95L707.01,1384.03z"/>
	<path class="st8" d="M698.7,1427.15l8.32-43.12c0.16-1.22,0.41-2.71,0.74-4.43c7.27-2.54,15.19-2.77,22.93-2.94
		c5.06-0.11,10.79,0.06,14.21,3.8c3.39,3.71,3.05,9.35,3.47,14.36s2.94,10.95,7.96,11.29c2.8,0.19,5.33-1.51,7.92-2.6
		c5.36-2.26,11.76-1.88,16.82,0.98c5.5,3.11,9.42,8.89,15.46,10.76c7.78,2.41,15.7-2.5,22.85-6.4c6.88-3.74,14.34-6.75,22.16-7.18
		c7.82-0.43,16.06,2.02,21.35,7.8c4.33,4.72,7.49,11.96,13.88,12.4c6.73,0.46,10.81-6.98,15.99-11.32
		c7.41-6.2,19.52-5.75,26.45,0.99c2.87,2.79,4.92,6.48,8.32,8.61c4.18,2.62,10.04,2.17,13.77-1.04c3.09-2.66,4.59-6.75,7.42-9.69
		c5.02-5.21,13.27-5.8,20.31-4.13c0.75,0.18,1.49,0.39,2.22,0.61l0.45,9.54l-3.6,22.68C850.88,1488.67,698.7,1427.15,698.7,1427.15z
		"/>
	<g>
		<g>
			<path class="st9" d="M775.66,1026.43c0.17,0,0.34-0.08,0.46-0.23c5.5-7.33,14.48-10.31,14.57-10.34c0.3-0.1,0.46-0.42,0.37-0.72
				c-0.1-0.3-0.42-0.46-0.72-0.37c-0.38,0.12-9.41,3.11-15.13,10.74c-0.19,0.25-0.14,0.61,0.11,0.8
				C775.42,1026.39,775.54,1026.43,775.66,1026.43z"/>
		</g>
	</g>
	<g>
		<g>
			<path class="st9" d="M776.74,1031.7c0.17,0,0.34-0.08,0.46-0.23c5.5-7.33,14.48-10.31,14.57-10.34c0.3-0.1,0.46-0.42,0.37-0.72
				c-0.1-0.3-0.42-0.46-0.72-0.37c-0.38,0.12-9.41,3.11-15.13,10.74c-0.19,0.25-0.14,0.61,0.11,0.8
				C776.5,1031.66,776.62,1031.7,776.74,1031.7z"/>
		</g>
	</g>
	<path d="M706.72,1386.16c-0.04,0-0.09,0-0.13-0.01c-0.37-0.07-0.61-0.43-0.54-0.8c27.39-138.44,79.23-223.02,82.73-228.62
		l-14.91-39.87l-3.59,8.36l-0.59-0.19c-41.18-13.05-63.25-35.64-63.47-35.87l-0.39-0.4l0.32-0.46c1.73-2.49,42.62-61.2,60.26-73.21
		c17.7-12.05,47.41-12.35,47.71-12.35l0,0c0.37,0,0.68,0.3,0.68,0.68s-0.3,0.68-0.68,0.68c-0.29,0-29.6,0.3-46.95,12.11
		c-16.61,11.31-55.6,66.7-59.58,72.39c3.11,3.04,24.44,22.92,61.92,34.93l4.44-10.34l16.34,43.68l-0.18,0.29
		c-0.54,0.84-54.56,86.11-82.73,228.44C707.32,1385.94,707.04,1386.16,706.72,1386.16z"/>
	<path d="M769.9,1125.06c-0.08,0-0.16-0.01-0.24-0.04c-0.35-0.13-0.53-0.53-0.4-0.88l17.25-45.59c0.13-0.35,0.53-0.53,0.88-0.4
		s0.53,0.53,0.4,0.88l-17.25,45.59C770.44,1124.9,770.18,1125.06,769.9,1125.06z"/>
	<path d="M804.26,1159.05c-0.02,0-0.05,0-0.07,0l-14.71-1.56c-0.37-0.04-0.64-0.37-0.6-0.75c0.04-0.37,0.37-0.65,0.75-0.61
		l14.71,1.56c0.37,0.04,0.64,0.37,0.6,0.75C804.89,1158.79,804.6,1159.05,804.26,1159.05z"/>
	<path d="M969.64,1437.97c-0.01,0-0.03,0-0.04,0c-0.37-0.02-0.66-0.35-0.64-0.72c5.87-94.48-7.85-165.18-20.39-207.85
		c-13.59-46.23-28.77-70.43-28.92-70.67l-0.12-0.19l0.02-0.22l4.4-59.56l0.1-0.15c19.09-29.02-3.73-52.6-3.96-52.83
		c-0.26-0.27-0.26-0.7,0-0.96c0.27-0.27,0.7-0.26,0.96,0c0.24,0.24,23.76,24.5,4.23,54.39l-4.36,58.99
		c1.47,2.39,15.93,26.55,28.94,70.75c12.59,42.79,26.35,113.67,20.47,208.39C970.3,1437.7,970,1437.97,969.64,1437.97z"/>
	<path d="M907.37,1098.94h-56.69c-0.38,0-0.68-0.3-0.68-0.68s0.3-0.68,0.68-0.68h56.69c0.38,0,0.68,0.3,0.68,0.68
		C908.05,1098.63,907.75,1098.94,907.37,1098.94z"/>
	<path d="M899.17,1108.84H861.6c-0.38,0-0.68-0.3-0.68-0.68s0.3-0.68,0.68-0.68h37.57c0.38,0,0.68,0.3,0.68,0.68
		C899.86,1108.54,899.55,1108.84,899.17,1108.84z"/>
	<path d="M926.07,1097.31c-0.33,0-0.62-0.24-0.67-0.58c-0.06-0.37,0.2-0.72,0.57-0.78c9.89-1.52,16.97-9.64,18.24-11.18
		c-0.42-1.61-0.97-3.96-1.66-6.88c-4.4-18.58-14.7-62.08-25.77-65.97c-13.03-4.59-34.88-7.31-35.1-7.33
		c-0.37-0.05-0.64-0.39-0.59-0.76s0.38-0.63,0.76-0.59c0.22,0.03,22.21,2.76,35.39,7.4c11.77,4.14,21.81,46.56,26.64,66.94
		c0.74,3.12,1.32,5.58,1.74,7.18l0.08,0.32l-0.2,0.26c-0.32,0.42-7.88,10.2-19.32,11.96
		C926.14,1097.31,926.1,1097.31,926.07,1097.31z"/>
	<path class="st2" d="M1069.25,1145.59c-0.28-2.23,0.03-4.93,1.09-5.78l20.56-12.89c1.62-1.3,4-1.04,5.3,0.58s1.04,4-0.58,5.3
		l-7.08,8.29c4.64,0.53,34.41,1.49,34.41,1.49c2.16-0.05,3.94,1.74,3.85,3.94c-0.09,2.01-1.81,3.56-3.81,3.6l-19.5,0.42
		c-0.29,0.01-0.54,0.16-0.7,0.38l0,0l0,0c-0.1,0.13-0.17,0.27-0.19,0.44l-0.11,0.98c-0.03,0.25,0.05,0.49,0.19,0.67
		c-0.45,4.52-1.16,10.25-1.45,15.09c-0.2,3.43,0.76,6.42-2.05,8.19c-1.62,1.02-10.13,1.01-13.15,0.79l-21.89-0.21
		C1064.7,1170.85,1065.15,1167.45,1069.25,1145.59z"/>
	<path class="st2" d="M1107.42,1156.24c-0.56,2.49-2.66,4.03-3.23,3.91l-18.91-4.17c-2.13-0.47-3.63-2.48-3.3-4.63
		c0.36-2.36,2.63-3.88,4.92-3.38l19.39,4.27C1106.29,1152.25,1107.97,1153.76,1107.42,1156.24z"/>
	<path class="st2" d="M1105.62,1164.1c-0.51,2.5-2.58,4.08-3.15,3.97l-18.99-3.8c-2.13-0.43-3.67-2.41-3.39-4.57
		c0.32-2.36,2.55-3.93,4.85-3.47l19.47,3.9C1104.42,1160.13,1106.13,1161.6,1105.62,1164.1z"/>
	<path class="st2" d="M1103.27,1171.25c-0.45,2.33-2.36,3.83-2.89,3.73l-17.73-3.34c-1.99-0.37-3.45-2.21-3.2-4.22
		c0.27-2.21,2.33-3.69,4.48-3.29l18.18,3.42C1102.11,1167.56,1103.71,1168.92,1103.27,1171.25z"/>
	<path class="st5" d="M1104.19,1160.85c0.35,0,0.67-0.25,0.75-0.61c0.09-0.42-0.17-0.82-0.59-0.91l-18.91-4.1
		c-1.78-0.39-2.97-2.04-2.7-3.76c0.14-0.92,0.64-1.72,1.4-2.24s1.68-0.7,2.59-0.5l17.29,3.81c0.41,0.09,0.82-0.17,0.92-0.59
		c0.09-0.41-0.17-0.82-0.59-0.92l-17.29-3.81c-1.3-0.29-2.69-0.02-3.79,0.74c-1.12,0.77-1.85,1.93-2.05,3.28
		c-0.39,2.52,1.32,4.93,3.89,5.5l18.91,4.1C1104.08,1160.85,1104.14,1160.85,1104.19,1160.85z"/>
	<path class="st5" d="M1101.94,1168.3c0.36,0,0.69-0.26,0.76-0.63c0.08-0.42-0.2-0.82-0.62-0.9l-18.56-3.45
		c-1.8-0.36-2.9-1.81-2.67-3.52c0.12-0.92,0.61-1.73,1.36-2.27s1.67-0.74,2.58-0.55l19.47,3.9c0.41,0.09,0.82-0.19,0.9-0.6
		c0.08-0.42-0.19-0.82-0.6-0.9l-19.47-3.9c-1.31-0.26-2.69,0.03-3.78,0.81c-1.1,0.79-1.81,1.96-1.99,3.31
		c-0.34,2.51,1.3,4.72,3.9,5.24l18.57,3.45C1101.85,1168.29,1101.9,1168.3,1101.94,1168.3z"/>
	<path class="st5" d="M1100.37,1175.75c0.36,0,0.69-0.26,0.75-0.63c0.08-0.42-0.2-0.82-0.61-0.9l-17.73-3.34
		c-1.64-0.31-2.78-1.79-2.58-3.37c0.1-0.85,0.54-1.59,1.22-2.09c0.68-0.5,1.52-0.69,2.36-0.53l18.18,3.42
		c0.41,0.08,0.82-0.2,0.9-0.61c0.08-0.42-0.2-0.82-0.61-0.9l-18.18-3.42c-1.24-0.23-2.53,0.06-3.55,0.8
		c-1.03,0.76-1.68,1.87-1.84,3.15c-0.29,2.38,1.39,4.61,3.82,5.07l17.73,3.34C1100.28,1175.74,1100.33,1175.75,1100.37,1175.75z"/>
	<path class="st5" d="M756.52,1241.55c0,0,6.53-1.99,12.37-5.21c5.83-3.23,6.08,1.9,5.05,3.91c-1.03,2-7.46,8.71-7.46,8.71
		L756.52,1241.55z"/>
	<path class="st2" d="M752.22,1240.44c0.1,0.18,0.2,0.39,0.29,0.55c9.47,1.34,20.48,2.89,23.19,3.25
		c4.97,0.67,20.91,8.46,25.39,13.49c8.12,9.11,2.32,8.79,2.32,8.79c7.55,10.26-1.79,8.58-1.79,8.58c7.57,8.6-1.52,8.72-1.52,8.72
		c3.59,5.03,2.35,7.01,0.7,7.78c-1.21,0.57-2.62,0.47-3.8-0.17c-2.17-1.18-6.92-3.77-11.87-6.58l0,0c0,0-16.03-5.25-45.22-11.17
		l-11.33-3.48L752.22,1240.44z"/>
	<g>
		<g>
			<g>
				<g>
					<g>
						<g>
							<g>
								<g>
									<path class="st5" d="M790.5,1275.91c-0.25-0.05-0.51,0.06-0.65,0.29c-0.16,0.29-0.06,0.66,0.23,0.82
										c4.06,2.31,9.57,7.2,9.62,7.25c0.25,0.22,0.63,0.2,0.85-0.05s0.2-0.63-0.05-0.85c-0.23-0.2-5.66-5.02-9.83-7.39
										C790.62,1275.94,790.56,1275.92,790.5,1275.91z"/>
								</g>
							</g>
						</g>
					</g>
				</g>
			</g>
		</g>
	</g>
	<g>
		<g>
			<g>
				<g>
					<g>
						<g>
							<g>
								<g>
									<path class="st5" d="M792.06,1268.43c-0.28-0.06-0.57,0.09-0.68,0.36c-0.13,0.31,0.02,0.66,0.33,0.79
										c5.26,2.15,9.48,5.93,9.52,5.97c0.25,0.22,0.63,0.2,0.85-0.04c0.22-0.25,0.2-0.63-0.04-0.85
										c-0.18-0.16-4.41-3.95-9.87-6.19C792.13,1268.45,792.09,1268.44,792.06,1268.43z"/>
								</g>
							</g>
						</g>
					</g>
				</g>
			</g>
		</g>
	</g>
	<g>
		<g>
			<g>
				<g>
					<g>
						<g>
							<g>
								<g>
									<path class="st5" d="M795.14,1260.17c-0.27-0.06-0.56,0.08-0.67,0.35c-0.13,0.3,0,0.66,0.31,0.8
										c4.48,1.99,8.18,5.59,8.22,5.63c0.24,0.23,0.62,0.23,0.85-0.01s0.23-0.62-0.01-0.85c-0.16-0.15-3.89-3.79-8.57-5.87
										C795.23,1260.19,795.19,1260.18,795.14,1260.17z"/>
								</g>
							</g>
						</g>
					</g>
				</g>
			</g>
		</g>
	</g>
	<path class="st2" d="M675.84,1163.37c-0.14-9.6,24.33-51.76,34.15-70.18c15.28,13.32,37.36,24.12,47.37,27.83
		c-9.74,15.53-20.89,35.81-25.51,43.04c-4.79,7.5,14.07,66.92,20.74,78.31l-24,27.83C711.96,1254.92,676.32,1196.58,675.84,1163.37z
		"/>
	<path class="st2" d="M1077.95,1135.04c0,0-9.88,4.37-12.62,4.2c-2.73-0.17-13.99-2.46-13.99-2.46l-5.49,39.88
		c0,0,8.38,0.99,22.9,0.23C1083.26,1176.12,1077.95,1135.04,1077.95,1135.04z"/>
	<g>
		<g>
			<path class="st10" d="M1233.35,709.64c-15.24-8.5-31.53-14.29-48.2-17.38l-9.53-40.9l-28.69,1.34l-28.69,1.34l-5.67,41.61
				c-16.31,4.63-31.99,11.92-46.37,21.81l-35.67-22.18l-19.33,21.23l-19.33,21.23l25.42,33.44c-8.5,15.24-14.29,31.53-17.38,48.2
				l-40.9,9.53l1.34,28.69l1.34,28.69l41.61,5.67c4.63,16.31,11.92,31.99,21.81,46.37L1002.93,974l21.23,19.33l21.23,19.33
				l33.44-25.42c15.24,8.5,31.53,14.29,48.2,17.37l9.53,40.9l28.69-1.34l28.69-1.34l5.67-41.61c16.31-4.63,31.99-11.92,46.37-21.81
				l35.67,22.18l19.33-21.23l19.33-21.23l-25.42-33.44c8.5-15.24,14.29-31.53,17.38-48.2l40.9-9.53l-1.34-28.69l-1.34-28.69
				l-41.61-5.67c-4.63-16.31-11.92-31.99-21.81-46.37l22.18-35.67l-21.23-19.33l-21.23-19.33L1233.35,709.64z M1235.76,920.98
				c-40.06,44-108.2,47.19-152.19,7.13c-44-40.06-47.19-108.2-7.13-152.19c40.06-44,108.2-47.19,152.19-7.13
				C1272.63,808.84,1275.82,876.98,1235.76,920.98z"/>
		</g>
	</g>
	<g>
		<g>
			<path class="st10" d="M1383.94,1259.21c-5.45-3.68-11.37-6.38-17.53-8.08l-2.26-15.66l-10.81-0.42l-10.81-0.42l-3.47,15.44
				c-6.27,1.21-12.39,3.44-18.11,6.69l-12.67-9.48l-7.94,7.35l-7.94,7.35l8.47,13.37c-3.68,5.45-6.38,11.37-8.08,17.53l-15.66,2.26
				l-0.42,10.81l-0.42,10.81l15.44,3.47c1.21,6.27,3.44,12.39,6.69,18.11l-9.48,12.67l7.35,7.94l7.35,7.94l13.37-8.47
				c5.45,3.68,11.37,6.38,17.53,8.08l2.26,15.66l10.81,0.42l10.81,0.42l3.47-15.44c6.27-1.21,12.39-3.44,18.11-6.69l12.67,9.48
				l7.94-7.35l7.94-7.35l-8.47-13.37c3.68-5.45,6.38-11.37,8.08-17.53l15.66-2.26l0.42-10.81l0.42-10.81l-15.44-3.47
				c-1.21-6.27-3.44-12.39-6.69-18.11l9.48-12.67l-7.35-7.94l-7.35-7.94L1383.94,1259.21z M1378.03,1338.62
				c-16.45,15.22-42.14,14.23-57.36-2.23c-15.22-16.45-14.23-42.14,2.23-57.36c16.45-15.22,42.14-14.23,57.36,2.23
				C1395.49,1297.71,1394.49,1323.39,1378.03,1338.62z"/>
		</g>
	</g>
	<path class="st11" d="M1084.06,1361.59c-36.03-2.99-64.9-32.62-66.13-69.63c-0.38-11.47-2.68-114.6,34.41-202.12
		c45.28-106.87,148.53-172.36,231.49-224.99c29.99-19.02,58.31-36.99,74.1-51.3c49.29-44.69,43.29-112.97,29.57-162.38
		c-8.08-29.12-31.58-58.55-64.48-80.76c-37.99-25.65-85.6-39.83-134.03-39.94c-102.36-0.24-155.3,35-155.77,35.36
		c-31.8,24.08-77.09,17.82-101.17-13.98s-17.82-77.09,13.98-101.17c8.79-6.65,90.27-65,243.3-64.65
		c76.82,0.18,153,23.14,214.51,64.67c61.84,41.74,105.47,99.22,122.85,161.84c15.67,56.44,19.01,110.22,9.95,159.84
		c-10.77,58.94-38.25,108.8-81.68,148.18c-24.97,22.64-58.38,43.83-93.75,66.27c-66.01,41.87-148.17,93.99-175.87,159.37
		c-20.85,49.19-23.7,118.53-23.04,141.09c1.33,39.86-29.9,73.18-69.76,74.51C1089.67,1361.89,1086.84,1361.82,1084.06,1361.59z"/>
	<ellipse class="st11" cx="1079.04" cy="1498.86" rx="77.03" ry="77.03"/>
	<path d="M1090.07,1363.65c-2.06,0-4.12-0.08-6.16-0.25c-37.39-3.1-66.54-33.79-67.8-71.38c-0.39-11.51-2.69-114.99,34.55-202.89
		c45.5-107.39,149.02-173.05,232.19-225.81c0.85-0.54,1.97-0.29,2.5,0.56c0.54,0.85,0.29,1.97-0.56,2.5
		c-82.75,52.49-185.73,117.82-230.79,224.16c-36.95,87.19-34.65,189.93-34.27,201.35c1.2,35.75,28.91,64.94,64.47,67.88
		c2.72,0.22,5.49,0.29,8.25,0.2c18.8-0.63,36.23-8.53,49.07-22.24c12.85-13.71,19.57-31.62,18.95-50.4c-0.03-1,0.75-1.84,1.75-1.87
		s1.84,0.75,1.87,1.75c0.66,19.76-6.41,38.59-19.92,53.01c-13.5,14.42-31.83,22.72-51.6,23.38
		C1091.74,1363.64,1090.91,1363.65,1090.07,1363.65z"/>
	<path d="M1361.22,988.62c-0.6,0-1.19-0.29-1.54-0.84c-0.54-0.85-0.3-1.96,0.54-2.49c35.32-22.41,68.66-43.55,93.5-66.08
		c43.13-39.11,70.43-88.62,81.12-147.16c9.01-49.35,5.68-102.86-9.91-159.03c-17.27-62.21-60.63-119.32-122.11-160.83
		c-0.83-0.56-1.05-1.69-0.49-2.52s1.69-1.05,2.52-0.49c62.2,41.99,106.08,99.82,123.58,162.86c15.74,56.7,19.1,110.75,9.99,160.65
		c-10.84,59.34-38.51,109.54-82.25,149.2c-25.08,22.73-58.54,43.96-93.96,66.43C1361.9,988.52,1361.56,988.62,1361.22,988.62z"/>
	<path d="M1387.5,652.98c-0.79,0-1.52-0.53-1.75-1.33c-7.97-28.71-31.2-57.77-63.75-79.74c-37.7-25.45-84.94-39.52-133.02-39.63
		c-0.34,0-0.68,0-1.02,0c-100.69,0-153.19,34.67-153.69,35.02c-15.73,11.91-35.2,16.99-54.79,14.29
		c-19.59-2.71-36.95-12.88-48.89-28.64c-24.64-32.54-18.22-79.07,14.33-103.71c0.8-0.61,1.94-0.45,2.54,0.35
		c0.6,0.8,0.45,1.94-0.35,2.54c-30.95,23.44-37.06,67.68-13.62,98.63c11.35,14.99,27.86,24.66,46.49,27.24s37.15-2.26,52.14-13.61
		c0.47-0.36,53.54-35.73,155.84-35.73c0.34,0,0.69,0,1.03,0c48.8,0.11,96.76,14.41,135.05,40.25
		c33.25,22.45,57.02,52.25,65.22,81.78c0.27,0.97-0.3,1.97-1.26,2.23C1387.83,652.96,1387.66,652.98,1387.5,652.98z"/>
	<path d="M1079.1,1577.67c-21.6,0-43.11-8.8-58.66-26.08c-0.67-0.75-0.61-1.89,0.14-2.56s1.89-0.61,2.56,0.14
		c14.83,16.48,35.36,24.88,55.96,24.88c17.93,0,35.92-6.36,50.27-19.27c14.94-13.44,23.75-31.89,24.81-51.95
		c1.06-20.06-5.76-39.34-19.19-54.27c-0.67-0.75-0.61-1.89,0.14-2.56s1.89-0.61,2.56,0.14c14.09,15.66,21.23,35.86,20.12,56.89
		s-10.35,40.37-26,54.46C1116.76,1571.01,1097.9,1577.67,1079.1,1577.67z"/>
	
		<rect x="855.69" y="967.49" transform="matrix(0.9597 -0.2811 0.2811 0.9597 -237.4288 280.6314)" class="st5" width="7.65" height="0.91"/>
	<g>
		<g>
			<g>
				<g>
					<g>
						<path class="st2" d="M1303.05,933.7c1.3-1.79,3.83-2.16,5.69-0.97l11.61,7.38c0.36,0.23,0.83,0.21,1.17-0.06l0,0
							c0.5-0.4,0.5-1.15,0.02-1.56l-15.55-13.07c-1.78-1.5-1.75-3.91,0.06-5.37l0,0c1.82-1.46,4.76-1.42,6.54,0.08l15.86,13.33
							c0.37,0.31,0.9,0.32,1.28,0.01l0.27-0.21c0.43-0.35,0.5-0.98,0.16-1.42l-14.37-17.93c-1.38-1.72-1.29-4.27,0.34-5.76
							c1.79-1.63,4.55-1.4,6.04,0.46l14.46,18.04c0.35,0.43,0.98,0.5,1.42,0.16l0.84-0.68c0.39-0.32,0.49-0.88,0.23-1.31
							l-11.14-18.36c-1.15-1.89-0.72-4.4,1.09-5.67c1.99-1.39,4.7-0.79,5.93,1.24c0,0,18.49,27.09,21.72,31.09l3.52-11.47
							c0.25-2.28,2.3-3.92,4.58-3.67l0,0c2.28,0.25,3.92,2.3,3.67,4.58l0.18,26.72c-0.16,1.48-2.49,3.36-4.72,4.42
							c-17.89,16.73-20.78,19.16-26.02,23.22l-15.67-20.97c-4.52-6.05-10.11-11.23-16.48-15.28l-1.6-1.02
							C1302.16,938.37,1301.62,935.65,1303.05,933.7z"/>
					</g>
				</g>
			</g>
		</g>
	</g>
	<g>
		<g>
			<g>
				<path class="st12" d="M1622.65,1241.19c0,0-10.79,271.44-34.43,428.06c0,0-34.94,5.6-74.53-9.92l-4.53-431.6l4.49-25.66
					L1622.65,1241.19z"/>
			</g>
		</g>
	</g>
	<g>
		<g>
			<g>
				<path class="st9" d="M1572.31,1671.09c-30.09,0-58.49-11.24-58.83-11.37c-0.28-0.11-0.42-0.43-0.3-0.71
					c0.11-0.28,0.43-0.42,0.71-0.3c0.39,0.16,39.32,15.56,74.13,10.15c0.95-7.49,14.45-113.88,15.69-138.12
					c0.02-0.3,0.3-0.53,0.58-0.52c0.3,0.02,0.54,0.27,0.52,0.58c-1.28,25.04-15.61,137.47-15.75,138.61l-0.05,0.41l-0.41,0.06
					C1583.22,1670.72,1577.74,1671.09,1572.31,1671.09z"/>
			</g>
		</g>
	</g>
	<g>
		<g>
			<g>
				<path class="st13" d="M1702.91,1243.69c0,0,3.3,271.63-12.19,429.27c0,0-34.6,7.4-74.95-6.04l-33.06-380.34l-20.72-102.84
					L1702.91,1243.69z"/>
			</g>
		</g>
	</g>
	<g>
		<g>
			<g>
				<path class="st9" d="M1669.96,1675.61c-26.53,0-54-8.06-54.35-8.16c-0.29-0.09-0.46-0.39-0.37-0.68s0.39-0.46,0.68-0.37
					c0.44,0.13,44.1,12.94,74.27,6.13c0.7-12.67,16.4-298.93,12.36-404.1c-0.01-0.3,0.22-0.56,0.53-0.57c0.01,0,0.01,0,0.02,0
					c0.29,0,0.54,0.23,0.55,0.53c4.11,107.07-12.22,401.65-12.39,404.62l-0.02,0.41l-0.4,0.09
					C1684.33,1675.01,1677.18,1675.61,1669.96,1675.61z M1690.72,1672.96L1690.72,1672.96L1690.72,1672.96z"/>
			</g>
		</g>
	</g>
	<g>
		<g>
			<g>
				<path class="st9" d="M1664.96,1675.53c0,0-0.01,0-0.02,0c-0.3-0.01-0.54-0.26-0.53-0.56c0.08-2.75,7.88-275.36,4.45-309.22
					c-0.03-0.3,0.19-0.57,0.49-0.6s0.57,0.19,0.6,0.49c3.43,33.93-4.37,306.61-4.45,309.36
					C1665.5,1675.3,1665.25,1675.53,1664.96,1675.53z"/>
			</g>
		</g>
	</g>
	<g>
		<g>
			<g>
				<path class="st9" d="M1565.91,1670.54c-0.01,0-0.02,0-0.03,0c-0.3-0.01-0.54-0.27-0.52-0.57l13.1-295.51
					c0.01-0.3,0.27-0.56,0.57-0.52c0.3,0.01,0.54,0.27,0.52,0.57l-13.1,295.51C1566.44,1670.31,1566.2,1670.54,1565.91,1670.54z"/>
			</g>
		</g>
	</g>
	<g>
		<g>
			<path class="st14" d="M1381.45,944.28l-3.91-4.91c0,0-34.7,9.76-47.27,38.21l5.5,7.41
				C1335.77,984.99,1361.15,953.32,1381.45,944.28z"/>
		</g>
	</g>
	<g>
		<g>
			<path class="st3" d="M1505.34,1243.58l-0.64-0.83l3.33-186.73c0,0-61.42,41.19-79.82,41.98
				c-18.41,0.79-94.51-112.17-94.51-112.17c16.04-36.81,49.81-41.91,49.81-41.91l62.84,68.89l73.62-66.79
				c9.82-5.96,85.28-7.25,85.28-7.25s85.89-1.95,95.71,4.01s45.93,104.12,51.54,148.65c5.61,44.52,0,73.36-34.01,78.62l-12.37,0.26
				l-0.95,73.27C1705.17,1243.58,1636.63,1259.01,1505.34,1243.58L1505.34,1243.58z"/>
		</g>
	</g>
	<g>
		<g>
			<path class="st8" d="M1530.58,1183.37h82.55c2.52,0,4.56-2.04,4.56-4.56v-106.84c0-2.52-2.04-4.56-4.56-4.56h-82.55
				c-2.52,0-4.56,2.04-4.56,4.56v106.84C1526.02,1181.33,1528.06,1183.37,1530.58,1183.37z"/>
		</g>
	</g>
	<g>
		<g>
			<path class="st14" d="M1546.6,1063.03h46.66c1.32,0,2.4,1.07,2.4,2.4v1.98h-51.46v-1.98
				C1544.2,1064.1,1545.28,1063.03,1546.6,1063.03z"/>
		</g>
	</g>
	<g>
		<g>
			<g>
				<g>
					<g>
						<path class="st2" d="M1523.83,1127.11c-9.9-8.72,0.47-10.19,0.47-10.19c-4.83-5.23-3.71-7.67-1.93-8.79
							c1.3-0.82,2.93-0.91,4.37-0.36c4.55,1.77,18.44,7.21,26.92,11.13c6.03-0.43,4.11-10.59,1.41-15.8
							c-1.39-2.68-1.49-7.12,5.06-2.65c5.35,3.65,13.38,15.66,13.38,15.66l33.61-3.23l-5.01,46.31c0,0-38.36-0.54-44.14-0.58
							c-5.78-0.04-25.14-6.63-30.98-11.72c-10.61-9.23-3.94-9.71-3.94-9.71C1512.91,1126.56,1523.83,1127.11,1523.83,1127.11z"/>
					</g>
				</g>
			</g>
		</g>
	</g>
	<g>
		<g>
			<g>
				<g>
					<g>
						<g>
							<path class="st5" d="M1536.43,1124.57c0.29,0.02,0.58-0.14,0.7-0.43c0.15-0.35-0.02-0.76-0.38-0.91
								c-4.97-2.05-11.98-6.84-12.05-6.88c-0.32-0.22-0.75-0.14-0.97,0.18c-0.22,0.32-0.14,0.75,0.18,0.97
								c0.29,0.2,7.2,4.91,12.31,7.02C1536.29,1124.54,1536.36,1124.56,1536.43,1124.57z"/>
						</g>
					</g>
				</g>
			</g>
		</g>
	</g>
	<g>
		<g>
			<g>
				<g>
					<g>
						<g>
							<path class="st5" d="M1535.74,1133.34c0.33,0.03,0.64-0.18,0.73-0.51c0.1-0.37-0.12-0.75-0.49-0.85
								c-6.32-1.7-11.7-5.4-11.75-5.43c-0.32-0.22-0.75-0.14-0.97,0.17c-0.22,0.32-0.14,0.75,0.17,0.97
								c0.23,0.16,5.62,3.87,12.18,5.64C1535.65,1133.33,1535.7,1133.34,1535.74,1133.34z"/>
						</g>
					</g>
				</g>
			</g>
		</g>
	</g>
	<g>
		<g>
			<g>
				<g>
					<g>
						<g>
							<path class="st5" d="M1533.41,1143.23c0.32,0.03,0.62-0.17,0.72-0.49c0.11-0.37-0.1-0.75-0.47-0.87
								c-5.42-1.62-10.16-5.2-10.21-5.24c-0.31-0.23-0.74-0.17-0.97,0.13c-0.23,0.31-0.17,0.74,0.13,0.97
								c0.2,0.15,5,3.76,10.65,5.46C1533.32,1143.21,1533.36,1143.22,1533.41,1143.23z"/>
						</g>
					</g>
				</g>
			</g>
		</g>
	</g>
	<g>
		<g>
			<polygon class="st9" points="1687.29,1104.17 1688.69,1102.52 1675.01,1090.95 1669.79,1027.53 1667.63,1027.71 1672.92,1092.03 
							"/>
		</g>
	</g>
	<g>
		<g>
			<path class="st9" d="M1706.14,1171.39l12.51-0.28c16.69-2.58,27.39-10.85,32.71-25.28c4.62-12.52,5.32-29.85,2.21-54.54
				l-2.15,0.27c6.34,50.33-3.23,72.76-33.03,77.4l-12.3,0.26L1706.14,1171.39z"/>
		</g>
	</g>
	<g>
		<g>
			<path class="st14" d="M1585.88,1101.83h-6.75c0,0-7.19,46.22,2.63,67.43h8.39C1590.16,1169.26,1580.36,1125.9,1585.88,1101.83z"
				/>
		</g>
	</g>
	<g>
		<g>
			<path class="st3" d="M1621.19,1094.87l-33.81,2.17c0,0-6.84,21.56,1.38,65.28c0.8,4.25,2.48,11.5,2.48,11.5
				s34.34,2.74,39.72-8.42c3.38-7-4.01-37.26-4.01-37.26L1621.19,1094.87z"/>
		</g>
	</g>
	<g>
		<g>
			<path class="st9" d="M1590.39,1174.92l115.76-3.53l-0.07-2.17l-114.02,3.48c-1.63-6.75-12.07-52.14-3.93-74.63l85.89-5.5
				l-0.14-2.16l-87.29,5.59l-0.25,0.65c-9.48,24.58,3.27,75.29,3.82,77.44L1590.39,1174.92z"/>
		</g>
	</g>
	<g>
		<g>
			<path class="st9" d="M1445.59,1031.23l1.8-17.9l71.29-64.67c5.23-4.74,15.38-4.8,15.48-4.8v-2.17l0,0
				c-0.46,0-11.09,0.06-16.94,5.37l-71.91,65.23l-1.88,18.73L1445.59,1031.23z"/>
		</g>
	</g>
	<g>
		<g>
			<path class="st9" d="M1445.55,1013.54l1.6-1.46l-63.24-69.32l-0.58,0.09c-0.34,0.05-33.77,5.9-50.62,42.53l1.97,0.91
				c15.16-32.95,44.03-40.25,48.43-41.19L1445.55,1013.54z"/>
		</g>
	</g>
	<g>
		<g>
			<path class="st14" d="M1564.5,940.26c20.75-1.15,40.75-1.49,40.75-1.49s16.63-0.38,36.09-0.29c0,0.11,0.01,0.23,0.01,0.34
				c0,21.23-17.21,38.44-38.44,38.44C1582.16,977.26,1565.26,960.82,1564.5,940.26z"/>
		</g>
	</g>
	<g>
		<g>
			<path class="st9" d="M1587.41,1251.1c0.64,0,1.28,0,1.9-0.01l-0.02-2.17c-27.07,0.29-75.43-5.41-82.85-6.3l2.69-204.55
				l-2.17-0.03l-2.71,206.5l0.96,0.12C1505.73,1244.72,1557.68,1251.1,1587.41,1251.1z"/>
		</g>
	</g>
	<g>
		<g>
			<path class="st9" d="M1625.84,979.28c10.92-6.8,18.84-17.34,22.31-29.66l-2.09-0.59c-3.33,11.8-10.92,21.89-21.37,28.41
				L1625.84,979.28z"/>
		</g>
	</g>
	<g>
		<g>
			<path class="st2" d="M1633.07,860.7c0,0-14.84-9.58-29.9-7.14c-8.72,1.41-15.54,8.29-17.05,17l-1.47,8.51l47.06-11.15
				c0,0,6.37,4.48,5.98,3.38C1637.3,870.22,1633.07,860.7,1633.07,860.7z"/>
		</g>
	</g>
	<g>
		<g>
			<g>
				<g>
					<g>
						<path class="st2" d="M1586.28,869.6l-6.2,35.91c0,0-2.75,12.74,8.2,16.28l-5.05,16.76c-1.88,6.23,0.88,12.98,6.65,15.97
							c2.82,1.46,6.27,2.77,10.32,3.47c12.83,2.21,21.44-6.21,23.34-10.83c1.9-4.63,2.66-28.17,2.66-28.17l2.34-11.23l6.1-44.02
							L1586.28,869.6z"/>
					</g>
				</g>
			</g>
		</g>
	</g>
	<g>
		<g>
			<g>
				<g>
					<g>
						<path class="st15" d="M1614.6,888.24c0.14,0,0.27-0.05,0.38-0.15c0.22-0.2,0.23-0.55,0.03-0.77
							c-0.07-0.08-7.4-7.84-14.31-2.46c-0.24,0.18-0.28,0.52-0.1,0.76s0.52,0.28,0.76,0.1c6.12-4.76,12.58,2.05,12.85,2.35
							C1614.31,888.18,1614.46,888.24,1614.6,888.24z"/>
					</g>
				</g>
			</g>
		</g>
	</g>
	<g>
		<g>
			<g>
				<g>
					<g>
						<path class="st15" d="M1591.06,881.5c0.15,0.03,0.31,0,0.44-0.1c0.24-0.18,0.28-0.52,0.1-0.76c-0.18-0.23-4.36-5.6-8.13-3.51
							c-0.26,0.15-0.36,0.48-0.21,0.74s0.48,0.36,0.74,0.21c2.95-1.64,6.7,3.17,6.74,3.22
							C1590.82,881.4,1590.94,881.47,1591.06,881.5z"/>
					</g>
				</g>
			</g>
		</g>
	</g>
	<g>
		<g>
			<g>
				<g>
					<g>
						<path d="M1603.15,892.18c-0.15,0.89,0.44,1.73,1.33,1.88s1.73-0.44,1.88-1.33s-0.44-1.73-1.33-1.88
							C1604.15,890.7,1603.31,891.29,1603.15,892.18z"/>
					</g>
				</g>
			</g>
		</g>
	</g>
	<g>
		<g>
			<g>
				<g>
					<g>
						<path d="M1586.38,887.63c-0.15,0.89,0.44,1.73,1.33,1.88s1.73-0.44,1.88-1.33s-0.44-1.73-1.33-1.88
							C1587.38,886.15,1586.54,886.74,1586.38,887.63z"/>
					</g>
				</g>
			</g>
		</g>
	</g>
	<g>
		<g>
			<g>
				<g>
					<g>
						<path class="st15" d="M1633.16,860.14c0,0,13.69,1.69,15.09,14.17c1.39,12.47-5.56,17.74-6.29,21.26s-2.45,27.81-18.91,23.14
							l2.28-40.22l8.54-14.69L1633.16,860.14z"/>
					</g>
				</g>
			</g>
		</g>
	</g>
	<g>
		<g>
			<g>
				<g>
					<g>
						<path class="st2" d="M1616.49,893.91c-0.92,5.31,2.65,10.37,7.96,11.28c5.31,0.92,10.37-2.65,11.28-7.96
							c0.92-5.31-2.65-10.37-7.96-11.28C1622.46,885.03,1617.41,888.59,1616.49,893.91z"/>
					</g>
				</g>
			</g>
		</g>
	</g>
	<g>
		<g>
			<g>
				<g>
					<g>
						<path class="st5" d="M1625.81,901.59c2,0.35,3.59-0.93,4.29-2.35c0.83-1.69,0.53-3.51-0.76-4.66c-1.9-1.69-3.98-1.18-5.08-0.7
							c0.6-1.02,1.39-1.7,2.35-2.03c2.08-0.72,4.3,0.45,4.32,0.46c0.13,0.07,0.3,0.02,0.37-0.11s0.02-0.3-0.11-0.37
							c-0.1-0.05-2.45-1.29-4.75-0.5c-1.33,0.46-2.36,1.49-3.06,3.08l-0.39,0.89l0.8-0.56c0.11-0.08,2.79-1.91,5.2,0.24
							c1.34,1.19,1.18,2.9,0.63,4.01c-0.56,1.15-1.87,2.37-3.71,2.06c-0.02,0-0.04-0.01-0.06-0.01c-0.15-0.03-0.29,0.07-0.31,0.22
							c-0.03,0.15,0.07,0.29,0.22,0.32C1625.77,901.58,1625.79,901.58,1625.81,901.59z"/>
					</g>
				</g>
			</g>
		</g>
	</g>
	<g>
		<g>
			<g>
				<g>
					<g>
						<path class="st5" d="M1616.19,915.38c0,0-4.46,21.34-31.63,18.76l3.73-12.36C1588.28,921.79,1605.07,928.29,1616.19,915.38z"
							/>
					</g>
				</g>
			</g>
		</g>
	</g>
	<g>
		<g>
			<g>
				<g>
					<g>
						<path class="st5" d="M1595.63,902.02c0.11,0.02,0.23-0.03,0.29-0.14c0.07-0.13,0.02-0.3-0.11-0.37l-5.05-2.7l3.87-12.32
							c0.04-0.14-0.03-0.3-0.18-0.34c-0.14-0.05-0.3,0.03-0.34,0.18l-4,12.75l5.45,2.91C1595.57,902,1595.6,902.01,1595.63,902.02z"
							/>
					</g>
				</g>
			</g>
		</g>
	</g>
	<g>
		<g>
			<g>
				<polygon class="st2" points="1626.09,922.03 1627.35,903.61 1622.77,903.33 1619.64,921.46 				"/>
			</g>
		</g>
	</g>
	<g>
		<g>
			<path class="st15" d="M1625.24,879.05c0,0-40.44-9.47-41.31-19.48c-0.87-10.01,8.79-8.6,8.79-8.6s0.55-13.91,12.2-7.75
				c11.65,6.16,34.61,9.58,39.06,22.13C1648.43,877.89,1625.24,879.05,1625.24,879.05z"/>
		</g>
	</g>
	<g>
		<path class="st15" d="M1626.46,876.63l-1.52,8.82c0,0-4.32,4.6-4.32,11.39c0,0-2.66,0.49-2.74-1.65s5.01-16.04,0.46-19.51
			s10.16-3.73,10.56-3.44s7.9,5.92,6.84,5.55C1634.68,877.42,1626.46,876.63,1626.46,876.63z"/>
	</g>
	<path class="st5" d="M1594.31,905.18l-0.19-0.89c0.16-0.03,3.82-0.82,6.5,0.01l-0.27,0.87
		C1597.89,904.41,1594.35,905.17,1594.31,905.18z"/>
	<g>
		<g>
			<g>
				<g>
					<path class="st16" d="M851.6,400.54l-2.5-0.26l0.13-1.25c0.47-4.59,1.08-9.25,1.8-13.85l0.2-1.24l2.49,0.39l-0.2,1.24
						c-0.72,4.55-1.32,9.17-1.79,13.72L851.6,400.54z M855.76,373.21l-2.46-0.52l0.26-1.23c0.98-4.59,2.09-9.15,3.3-13.57l0.33-1.21
						l2.43,0.67l-0.33,1.21c-1.2,4.37-2.3,8.89-3.26,13.43L855.76,373.21z M1025.03,354.4L1025.03,354.4
						c-2.07,0.06-4.2-0.09-6.34-0.42l-1.24-0.19l0.39-2.49l1.24,0.19c1.99,0.31,3.97,0.44,5.88,0.39c0,0,0,0,0.01,0
						c2.51-0.07,4.97-0.45,7.31-1.14l1.21-0.36l0.71,2.41l-1.21,0.36C1030.43,353.91,1027.76,354.33,1025.03,354.4z M1006.21,350
						l-1.06-0.68c-3.98-2.53-6.9-6.42-8.68-11.55l-0.41-1.19l2.38-0.83l0.41,1.19c1.59,4.58,4.16,8.03,7.65,10.25l1.06,0.68
						L1006.21,350z M1044.48,346.89l-1.69-1.86l0.93-0.85c3.14-2.86,5.88-6.43,8.15-10.63l0.6-1.11l2.21,1.2l-0.6,1.11
						c-2.4,4.45-5.32,8.25-8.68,11.3L1044.48,346.89z M862.94,346.53l-2.38-0.82l0.41-1.19c1.54-4.48,3.21-8.87,4.99-13.06
						l0.49-1.16l2.32,0.98l-0.49,1.16c-1.75,4.13-3.41,8.47-4.93,12.89L862.94,346.53z M997.07,324.97l-2.52-0.09l0.04-1.26
						c0.15-4.42,0.87-9.12,2.15-13.97l0.32-1.22l2.43,0.64l-0.32,1.22c-1.23,4.67-1.92,9.19-2.07,13.42L997.07,324.97z
						 M1058.84,322.74l-2.44-0.61l0.31-1.22c1.09-4.33,1.71-8.87,1.86-13.47l0.04-1.26l2.52,0.08l-0.04,1.26
						c-0.16,4.78-0.81,9.49-1.94,14L1058.84,322.74z M873.55,321.08l-2.24-1.16l0.58-1.12c2.18-4.2,4.52-8.29,6.96-12.14l0.67-1.06
						l2.13,1.35l-0.67,1.06c-2.4,3.79-4.71,7.81-6.86,11.95L873.55,321.08z M1003.25,298.57l-2.3-1.03l0.51-1.15
						c1.86-4.16,4.08-8.33,6.6-12.4l0.66-1.07l2.14,1.33l-0.66,1.07c-2.46,3.97-4.63,8.04-6.44,12.1L1003.25,298.57z
						 M1057.84,295.11l-0.22-1.24c-0.31-1.76-0.7-3.51-1.15-5.21c-0.71-2.68-1.64-5.28-2.77-7.74l-0.52-1.14l2.29-1.05l0.52,1.14
						c1.18,2.59,2.16,5.32,2.91,8.14c0.47,1.76,0.87,3.58,1.2,5.41l0.22,1.24L1057.84,295.11z M888.13,297.75l-1.99-1.55l0.77-0.99
						c2.9-3.72,5.99-7.28,9.18-10.59l0.87-0.91l1.81,1.75l-0.87,0.91c-3.13,3.24-6.16,6.74-9,10.38L888.13,297.75z M1017.36,275.1
						l-1.96-1.57l0.79-0.98c2.88-3.59,6.04-7.1,9.37-10.42l0.89-0.89l1.78,1.78l-0.89,0.89c-3.27,3.26-6.36,6.69-9.19,10.21
						L1017.36,275.1z M907.01,277.85l-1.6-1.94l0.97-0.8c3.61-2.97,7.42-5.75,11.32-8.26l1.06-0.68l1.36,2.12l-1.06,0.68
						c-3.82,2.46-7.55,5.18-11.08,8.09L907.01,277.85z M1047.23,270.55l-0.82-0.95c-2.88-3.32-6.29-6.33-10.14-8.94l-1.04-0.71
						l1.41-2.08l1.04,0.71c4.02,2.74,7.6,5.89,10.62,9.37l0.82,0.95L1047.23,270.55z M929.9,262.79l-1.11-2.26l1.13-0.55
						c4.18-2.05,8.5-3.92,12.86-5.55l1.18-0.44l0.88,2.36l-1.18,0.44c-4.28,1.6-8.53,3.44-12.63,5.45L929.9,262.79z M1036.6,255.53
						l-1.58-1.96l0.98-0.79c3.59-2.89,7.41-5.66,11.33-8.22l1.06-0.69l1.38,2.11l-1.05,0.69c-3.86,2.52-7.61,5.24-11.13,8.08
						L1036.6,255.53z M1025.41,254.78l-1.17-0.47c-4.06-1.64-8.46-2.98-13.06-3.97l-1.23-0.27l0.53-2.46l1.23,0.27
						c4.74,1.03,9.27,2.41,13.47,4.1l1.17,0.47L1025.41,254.78z M955.55,252.91l-0.65-2.43l1.22-0.32
						c4.54-1.21,9.15-2.19,13.71-2.92l1.24-0.2l0.4,2.49l-1.24,0.2c-4.47,0.71-9,1.68-13.45,2.86L955.55,252.91z M998.88,248.51
						l-1.26-0.09c-4.45-0.32-9.07-0.37-13.73-0.14l-1.26,0.06l-0.12-2.51l1.26-0.06c4.75-0.24,9.48-0.19,14.03,0.14l1.26,0.09
						L998.88,248.51z M1059.46,240.32l-1.13-2.25l1.12-0.57c4.09-2.06,8.44-3.92,12.91-5.51l1.19-0.42l0.84,2.37l-1.19,0.42
						c-4.37,1.56-8.62,3.37-12.62,5.38L1059.46,240.32z M1183.3,234.46l-1.22-0.3c-4.45-1.11-8.99-2.12-13.49-3.01l-1.23-0.24
						l0.48-2.47l1.23,0.24c4.54,0.89,9.13,1.92,13.62,3.04l1.22,0.31L1183.3,234.46z M1156.2,229.01l-1.25-0.18
						c-4.61-0.66-9.23-1.18-13.73-1.56l-1.25-0.11l0.21-2.51l1.25,0.11c4.54,0.38,9.21,0.92,13.87,1.58l1.25,0.18L1156.2,229.01z
						 M1085.17,230.79l-0.58-2.45l1.23-0.29c4.42-1.04,9.06-1.89,13.77-2.54l1.25-0.17l0.34,2.49l-1.25,0.17
						c-4.64,0.63-9.19,1.47-13.54,2.49L1085.17,230.79z M1128.7,226.56l-1.26-0.03c-4.66-0.1-9.23-0.03-13.79,0.2l-1.26,0.06
						l-0.13-2.51l1.26-0.06c4.62-0.24,9.25-0.3,13.98-0.21l1.26,0.03L1128.7,226.56z"/>
				</g>
			</g>
		</g>
	</g>
	<g>
		<g>
			<g>
				<path class="st17" d="M1227.13,275.94l14.06-13.05c0,0,62.95-0.22,63.87-0.56c0.92-0.35,34.6-13.05,34.6-13.05l-39.97-6.56
					l-66.72,2.55L1227.13,275.94z"/>
			</g>
		</g>
	</g>
	<g>
		<g>
			<g>
				<polygon class="st13" points="1221.45,211.55 1339.65,249.28 1232.96,245.28 				"/>
			</g>
		</g>
	</g>
	<g>
		<g>
			<g>
				<polygon class="st13" points="1241.18,262.89 1253.21,298.79 1339.65,249.28 				"/>
			</g>
		</g>
	</g>
	<rect y="1717.88" class="st3" width="2352.42" height="9.64"/>
	<g>
		<g>
			<g>
				<g>
					<g>
						<g>
							<g>
								<g>
									<g>
										<path class="st7" d="M654.48,1710.34h105.2v-21.46c0,0-7.65-10.3-19.3-5.04c0,0-17.62,12.5-33.16-2.63l-38.58,17.11
											C668.64,1698.32,654.48,1703.04,654.48,1710.34z"/>
									</g>
								</g>
							</g>
						</g>
					</g>
				</g>
			</g>
		</g>
		<g>
			<g>
				<rect x="759.29" y="1688.88" width="0.77" height="18.23"/>
			</g>
		</g>
		<g>
			<g>
				<path d="M724.58,1689.08c-1.48,0-2.37-0.13-2.4-0.13l0.11-0.76c0.09,0.01,9.2,1.29,17.86-4.67l0.44,0.64
					C734.39,1688.42,727.96,1689.08,724.58,1689.08z"/>
			</g>
		</g>
		<g>
			<g>
				
					<rect x="749.53" y="1701.61" transform="matrix(0.8296 -0.5583 0.5583 0.8296 -822.0476 710.1102)" width="5.94" height="0.77"/>
			</g>
		</g>
		<g>
			<g>
				<rect x="746.12" y="1700.8" transform="matrix(0.8291 -0.5592 0.5592 0.8291 -823.1986 709.6771)" width="5.94" height="0.77"/>
			</g>
		</g>
		<g>
			<g>
				<g>
					<g>
						<g>
							<g>
								<g>
									<g>
										<path class="st8" d="M760.31,1717.85H654.45c-2.51,0-4.54-2.03-4.54-4.54v-1.26c0-2.51,2.03-4.54,4.54-4.54h105.86
											c1.01,0,1.83,0.82,1.83,1.83v6.69C762.13,1717.03,761.32,1717.85,760.31,1717.85z"/>
									</g>
								</g>
							</g>
						</g>
					</g>
				</g>
			</g>
		</g>
		<g>
			<g>
				<path d="M655.43,1707.67l-0.7-0.33c0.09-0.18,2.2-4.52,10.1-7.89c7.76-3.31,41.89-18.45,42.23-18.6l0.31,0.71
					c-0.34,0.15-34.48,15.29-42.24,18.6C657.53,1703.4,655.45,1707.63,655.43,1707.67z"/>
			</g>
		</g>
		<g>
			<g>
				<g>
					<g>
						<g>
							<g>
								<g>
									<g>
										<path d="M651.48,1716.91c-1.25-1.06-1.96-2.6-1.96-4.24c0-3.06,2.49-5.56,5.56-5.56h104.46c1.64,0,2.98,1.34,2.98,2.98
											v5.16h-0.77v-5.16c0-1.22-0.99-2.21-2.21-2.21H655.08c-2.64,0-4.78,2.15-4.78,4.78c0,1.41,0.62,2.74,1.69,3.65
											L651.48,1716.91z"/>
									</g>
								</g>
							</g>
						</g>
					</g>
				</g>
			</g>
		</g>
	</g>
	<g>
		<g>
			<g>
				<g>
					<g>
						<g>
							<g>
								<g>
									<g>
										<path class="st7" d="M959.42,1710.34h-105.2v-21.46c0,0,7.65-10.3,19.3-5.04c0,0,17.62,12.5,33.16-2.63l38.58,17.11
											C945.26,1698.32,959.42,1703.04,959.42,1710.34z"/>
									</g>
								</g>
							</g>
						</g>
					</g>
				</g>
			</g>
		</g>
		<g>
			<g>
				<rect x="853.84" y="1688.88" width="0.77" height="18.23"/>
			</g>
		</g>
		<g>
			<g>
				<path d="M889.32,1689.08c1.48,0,2.37-0.13,2.4-0.13l-0.11-0.76c-0.09,0.01-9.2,1.29-17.86-4.67l-0.44,0.64
					C879.51,1688.42,885.95,1689.08,889.32,1689.08z"/>
			</g>
		</g>
		<g>
			<g>
				
					<rect x="860.97" y="1699.06" transform="matrix(0.5582 -0.8297 0.8297 0.5582 -1031.6398 1466.6245)" width="0.77" height="5.94"/>
			</g>
		</g>
		<g>
			<g>
				
					<rect x="864.56" y="1698.21" transform="matrix(0.5593 -0.829 0.829 0.5593 -1029.0437 1466.7546)" width="0.77" height="5.94"/>
			</g>
		</g>
		<g>
			<g>
				<g>
					<g>
						<g>
							<g>
								<g>
									<g>
										<path class="st8" d="M853.59,1717.85h105.86c2.51,0,4.54-2.03,4.54-4.54v-1.26c0-2.51-2.03-4.54-4.54-4.54H853.59
											c-1.01,0-1.83,0.82-1.83,1.83v6.69C851.77,1717.03,852.59,1717.85,853.59,1717.85z"/>
									</g>
								</g>
							</g>
						</g>
					</g>
				</g>
			</g>
		</g>
		<g>
			<g>
				<path d="M958.47,1707.67l0.7-0.33c-0.09-0.18-2.2-4.52-10.1-7.89c-7.76-3.31-41.89-18.45-42.23-18.6l-0.31,0.71
					c0.34,0.15,34.48,15.29,42.24,18.6C956.37,1703.4,958.45,1707.63,958.47,1707.67z"/>
			</g>
		</g>
		<g>
			<g>
				<g>
					<g>
						<g>
							<g>
								<g>
									<g>
										<path d="M962.42,1716.91c1.25-1.06,1.96-2.6,1.96-4.24c0-3.06-2.49-5.56-5.56-5.56H854.36c-1.64,0-2.98,1.34-2.98,2.98
											v5.16h0.77v-5.16c0-1.22,0.99-2.21,2.21-2.21h104.46c2.64,0,4.78,2.15,4.78,4.78c0,1.41-0.62,2.74-1.69,3.65
											L962.42,1716.91z"/>
									</g>
								</g>
							</g>
						</g>
					</g>
				</g>
			</g>
		</g>
	</g>
	<g>
		<g>
			<g>
				<g>
					<g>
						<g>
							<g>
								<g>
									<g>
										<path class="st18" d="M1578.07,1710.37h105.2v-21.46c0,0-7.65-10.3-19.3-5.04c0,0-17.62,12.5-33.16-2.63l-38.58,17.11
											C1592.24,1698.35,1578.07,1703.07,1578.07,1710.37z"/>
									</g>
								</g>
							</g>
						</g>
					</g>
				</g>
			</g>
		</g>
		<g>
			<g>
				<rect x="1682.89" y="1688.91" width="0.77" height="18.23"/>
			</g>
		</g>
		<g>
			<g>
				<path d="M1648.18,1689.11c-1.48,0-2.37-0.13-2.4-0.13l0.11-0.76c0.09,0.01,9.2,1.29,17.86-4.67l0.44,0.64
					C1657.99,1688.46,1651.55,1689.11,1648.18,1689.11z"/>
			</g>
		</g>
		<g>
			<g>
				
					<rect x="1673.14" y="1701.74" transform="matrix(0.8297 -0.5582 0.5582 0.8297 -664.6969 1225.4747)" width="5.94" height="0.77"/>
			</g>
		</g>
		<g>
			<g>
				
					<rect x="1669.57" y="1700.72" transform="matrix(0.829 -0.5592 0.5592 0.829 -665.3157 1226.1622)" width="5.94" height="0.77"/>
			</g>
		</g>
		<g>
			<g>
				<g>
					<g>
						<g>
							<g>
								<g>
									<g>
										<path class="st8" d="M1683.9,1717.88h-105.86c-2.51,0-4.54-2.03-4.54-4.54v-1.26c0-2.51,2.03-4.54,4.54-4.54h105.86
											c1.01,0,1.83,0.82,1.83,1.83v6.69C1685.73,1717.06,1684.91,1717.88,1683.9,1717.88z"/>
									</g>
								</g>
							</g>
						</g>
					</g>
				</g>
			</g>
		</g>
		<g>
			<g>
				<path d="M1579.02,1707.7l-0.7-0.33c0.09-0.18,2.2-4.52,10.1-7.89c7.76-3.31,41.89-18.45,42.23-18.6l0.31,0.71
					c-0.34,0.15-34.48,15.29-42.24,18.6C1581.13,1703.44,1579.04,1707.66,1579.02,1707.7z"/>
			</g>
		</g>
		<g>
			<g>
				<g>
					<g>
						<g>
							<g>
								<g>
									<g>
										<path d="M1575.08,1716.95c-1.25-1.06-1.96-2.6-1.96-4.24c0-3.06,2.49-5.56,5.56-5.56h104.46c1.64,0,2.98,1.34,2.98,2.98
											v5.16h-0.77v-5.16c0-1.22-0.99-2.21-2.21-2.21h-104.46c-2.64,0-4.78,2.15-4.78,4.78c0,1.41,0.62,2.74,1.69,3.65
											L1575.08,1716.95z"/>
									</g>
								</g>
							</g>
						</g>
					</g>
				</g>
			</g>
		</g>
	</g>
</g>
</svg>
